<svg width="108" height="108" viewBox="0 0 108 108" fill="none" xmlns="http://www.w3.org/2000/svg">
<g filter="url(#filter0_d_316_466)">
<rect x="4" width="100" height="100" rx="50" fill="url(#paint0_linear_316_466)"/>
<path d="M102 50C102 23.552 80.448 2 54 2C27.552 2 6 23.552 6 50C6 63.92 12 76.448 21.504 85.232C21.504 85.28 21.504 85.28 21.456 85.328C21.936 85.808 22.512 86.192 22.992 86.624C23.28 86.864 23.52 87.104 23.808 87.296C24.672 88.016 25.632 88.688 26.544 89.36C26.88 89.6 27.168 89.792 27.504 90.032C28.416 90.656 29.376 91.232 30.384 91.76C30.72 91.952 31.104 92.192 31.44 92.384C32.4 92.912 33.408 93.392 34.464 93.824C34.848 94.016 35.232 94.208 35.616 94.352C36.672 94.784 37.728 95.168 38.784 95.504C39.168 95.648 39.552 95.792 39.936 95.888C41.088 96.224 42.24 96.512 43.392 96.8C43.728 96.896 44.064 96.992 44.448 97.04C45.792 97.328 47.136 97.52 48.528 97.664C48.72 97.664 48.912 97.712 49.104 97.76C50.736 97.904 52.368 98 54 98C55.632 98 57.264 97.904 58.848 97.76C59.04 97.76 59.232 97.712 59.424 97.664C60.816 97.52 62.16 97.328 63.504 97.04C63.84 96.992 64.176 96.848 64.56 96.8C65.712 96.512 66.912 96.272 68.016 95.888C68.4 95.744 68.784 95.6 69.168 95.504C70.224 95.12 71.328 94.784 72.336 94.352C72.72 94.208 73.104 94.016 73.488 93.824C74.496 93.392 75.504 92.912 76.512 92.384C76.896 92.192 77.232 91.952 77.568 91.76C78.528 91.184 79.488 90.656 80.448 90.032C80.784 89.84 81.072 89.6 81.408 89.36C82.368 88.688 83.28 88.016 84.144 87.296C84.432 87.056 84.672 86.816 84.96 86.624C85.488 86.192 86.016 85.76 86.496 85.328C86.496 85.28 86.496 85.28 86.448 85.232C96 76.448 102 63.92 102 50ZM77.712 73.856C64.704 65.12 43.392 65.12 30.288 73.856C28.176 75.248 26.448 76.88 25.008 78.656C17.712 71.264 13.2 61.136 13.2 50C13.2 27.488 31.488 9.2 54 9.2C76.512 9.2 94.8 27.488 94.8 50C94.8 61.136 90.288 71.264 82.992 78.656C81.6 76.88 79.824 75.248 77.712 73.856Z" fill="white"/>
<path d="M54 25.6619C44.064 25.6619 36 33.7259 36 43.6619C36 53.4059 43.632 61.3259 53.76 61.6139C53.904 61.6139 54.096 61.6139 54.192 61.6139C54.288 61.6139 54.432 61.6139 54.528 61.6139C54.576 61.6139 54.624 61.6139 54.624 61.6139C64.32 61.2779 71.952 53.4059 72 43.6619C72 33.7259 63.936 25.6619 54 25.6619Z" fill="white"/>
</g>
<defs>
<filter id="filter0_d_316_466" x="0" y="0" width="108" height="108" filterUnits="userSpaceOnUse" color-interpolation-filters="sRGB">
<feFlood flood-opacity="0" result="BackgroundImageFix"/>
<feColorMatrix in="SourceAlpha" type="matrix" values="0 0 0 0 0 0 0 0 0 0 0 0 0 0 0 0 0 0 127 0" result="hardAlpha"/>
<feOffset dy="4"/>
<feGaussianBlur stdDeviation="2"/>
<feComposite in2="hardAlpha" operator="out"/>
<feColorMatrix type="matrix" values="0 0 0 0 0 0 0 0 0 0 0 0 0 0 0 0 0 0 0.25 0"/>
<feBlend mode="normal" in2="BackgroundImageFix" result="effect1_dropShadow_316_466"/>
<feBlend mode="normal" in="SourceGraphic" in2="effect1_dropShadow_316_466" result="shape"/>
</filter>
<linearGradient id="paint0_linear_316_466" x1="54" y1="0" x2="67.6865" y2="186.919" gradientUnits="userSpaceOnUse">
<stop stop-color="#020126"/>
<stop offset="0.31" stop-color="#070380"/>
<stop offset="1" stop-color="white"/>
</linearGradient>
</defs>
</svg>
