<svg width="47" height="52" viewBox="0 0 47 52" fill="none" xmlns="http://www.w3.org/2000/svg">
<path d="M4.62145 52C3.47569 52 2.482 51.5703 1.64037 50.7109C0.798742 49.8514 0.37793 48.8367 0.37793 47.6667V8.66665C0.37793 7.49665 0.798742 6.48193 1.64037 5.6225C2.482 4.76303 3.47569 4.33329 4.62145 4.33329H8.2285V0H12.6842V4.33329H33.9021V0H38.3579V4.33329H41.9649C43.1107 4.33329 44.1044 4.76303 44.946 5.6225C45.7876 6.48193 46.2084 7.49665 46.2084 8.66665V47.6667C46.2084 48.8367 45.7876 49.8514 44.946 50.7109C44.1044 51.5703 43.1107 52 41.9649 52H4.62145ZM4.62145 47.6667H41.9649V20.3666H4.62145V47.6667ZM4.62145 16.0334H41.9649V8.66665H4.62145V16.0334ZM23.2932 31.2C22.5718 31.2 21.9671 30.9508 21.4791 30.4525C20.991 29.9542 20.747 29.3367 20.747 28.6C20.747 27.8633 20.991 27.2458 21.4791 26.7475C21.9671 26.2492 22.5718 26 23.2932 26C24.0146 26 24.6193 26.2492 25.1073 26.7475C25.5953 27.2458 25.8393 27.8633 25.8393 28.6C25.8393 29.3367 25.5953 29.9542 25.1073 30.4525C24.6193 30.9508 24.0146 31.2 23.2932 31.2ZM13.1086 31.2C12.3872 31.2 11.7825 30.9508 11.2945 30.4525C10.8065 29.9542 10.5625 29.3367 10.5625 28.6C10.5625 27.8633 10.8065 27.2458 11.2945 26.7475C11.7825 26.2492 12.3872 26 13.1086 26C13.83 26 14.4347 26.2492 14.9228 26.7475C15.4108 27.2458 15.6548 27.8633 15.6548 28.6C15.6548 29.3367 15.4108 29.9542 14.9228 30.4525C14.4347 30.9508 13.83 31.2 13.1086 31.2ZM33.4777 31.2C32.7563 31.2 32.1516 30.9508 31.6636 30.4525C31.1756 29.9542 30.9316 29.3367 30.9316 28.6C30.9316 27.8633 31.1756 27.2458 31.6636 26.7475C32.1516 26.2492 32.7563 26 33.4777 26C34.1992 26 34.8039 26.2492 35.2919 26.7475C35.7799 27.2458 36.0239 27.8633 36.0239 28.6C36.0239 29.3367 35.7799 29.9542 35.2919 30.4525C34.8039 30.9508 34.1992 31.2 33.4777 31.2ZM23.2932 41.6C22.5718 41.6 21.9671 41.3508 21.4791 40.8525C20.991 40.3542 20.747 39.7367 20.747 39C20.747 38.2633 20.991 37.6458 21.4791 37.1475C21.9671 36.6492 22.5718 36.4 23.2932 36.4C24.0146 36.4 24.6193 36.6492 25.1073 37.1475C25.5953 37.6458 25.8393 38.2633 25.8393 39C25.8393 39.7367 25.5953 40.3542 25.1073 40.8525C24.6193 41.3508 24.0146 41.6 23.2932 41.6ZM13.1086 41.6C12.3872 41.6 11.7825 41.3508 11.2945 40.8525C10.8065 40.3542 10.5625 39.7367 10.5625 39C10.5625 38.2633 10.8065 37.6458 11.2945 37.1475C11.7825 36.6492 12.3872 36.4 13.1086 36.4C13.83 36.4 14.4347 36.6492 14.9228 37.1475C15.4108 37.6458 15.6548 38.2633 15.6548 39C15.6548 39.7367 15.4108 40.3542 14.9228 40.8525C14.4347 41.3508 13.83 41.6 13.1086 41.6ZM33.4777 41.6C32.7563 41.6 32.1516 41.3508 31.6636 40.8525C31.1756 40.3542 30.9316 39.7367 30.9316 39C30.9316 38.2633 31.1756 37.6458 31.6636 37.1475C32.1516 36.6492 32.7563 36.4 33.4777 36.4C34.1992 36.4 34.8039 36.6492 35.2919 37.1475C35.7799 37.6458 36.0239 38.2633 36.0239 39C36.0239 39.7367 35.7799 40.3542 35.2919 40.8525C34.8039 41.3508 34.1992 41.6 33.4777 41.6Z" fill="white"/>
</svg>
