<svg width="60" height="60" viewBox="0 0 60 60" fill="none" xmlns="http://www.w3.org/2000/svg">
<mask id="mask0_456_1332" style="mask-type:alpha" maskUnits="userSpaceOnUse" x="0" y="0" width="60" height="60">
<rect width="60" height="60" fill="#D9D9D9"/>
</mask>
<g mask="url(#mask0_456_1332)">
<path d="M14.6245 42.75C16.7495 41.125 19.1245 39.8438 21.7495 38.9062C24.3745 37.9688 27.1245 37.5 29.9995 37.5C32.8745 37.5 35.6245 37.9688 38.2495 38.9062C40.8745 39.8438 43.2495 41.125 45.3745 42.75C46.8328 41.0417 47.9683 39.1042 48.7808 36.9375C49.5933 34.7708 49.9995 32.4583 49.9995 30C49.9995 24.4583 48.0516 19.7396 44.1558 15.8438C40.2599 11.9479 35.5412 10 29.9995 10C24.4578 10 19.7391 11.9479 15.8433 15.8438C11.9474 19.7396 9.99951 24.4583 9.99951 30C9.99951 32.4583 10.4058 34.7708 11.2183 36.9375C12.0308 39.1042 13.1662 41.0417 14.6245 42.75ZM29.9995 32.5C27.5412 32.5 25.4683 31.6562 23.7808 29.9688C22.0933 28.2812 21.2495 26.2083 21.2495 23.75C21.2495 21.2917 22.0933 19.2188 23.7808 17.5313C25.4683 15.8438 27.5412 15 29.9995 15C32.4578 15 34.5308 15.8438 36.2183 17.5313C37.9058 19.2188 38.7495 21.2917 38.7495 23.75C38.7495 26.2083 37.9058 28.2812 36.2183 29.9688C34.5308 31.6562 32.4578 32.5 29.9995 32.5ZM29.9995 55C26.5412 55 23.2912 54.3438 20.2495 53.0312C17.2078 51.7188 14.562 49.9375 12.312 47.6875C10.062 45.4375 8.28076 42.7917 6.96826 39.75C5.65576 36.7083 4.99951 33.4583 4.99951 30C4.99951 26.5417 5.65576 23.2917 6.96826 20.25C8.28076 17.2083 10.062 14.5625 12.312 12.3125C14.562 10.0625 17.2078 8.28125 20.2495 6.96875C23.2912 5.65625 26.5412 5 29.9995 5C33.4578 5 36.7078 5.65625 39.7495 6.96875C42.7912 8.28125 45.437 10.0625 47.687 12.3125C49.937 14.5625 51.7183 17.2083 53.0308 20.25C54.3433 23.2917 54.9995 26.5417 54.9995 30C54.9995 33.4583 54.3433 36.7083 53.0308 39.75C51.7183 42.7917 49.937 45.4375 47.687 47.6875C45.437 49.9375 42.7912 51.7188 39.7495 53.0312C36.7078 54.3438 33.4578 55 29.9995 55ZM29.9995 50C32.2078 50 34.2912 49.6771 36.2495 49.0313C38.2078 48.3854 39.9995 47.4583 41.6245 46.25C39.9995 45.0417 38.2078 44.1146 36.2495 43.4688C34.2912 42.8229 32.2078 42.5 29.9995 42.5C27.7912 42.5 25.7078 42.8229 23.7495 43.4688C21.7912 44.1146 19.9995 45.0417 18.3745 46.25C19.9995 47.4583 21.7912 48.3854 23.7495 49.0313C25.7078 49.6771 27.7912 50 29.9995 50ZM29.9995 27.5C31.0828 27.5 31.9787 27.1458 32.687 26.4375C33.3953 25.7292 33.7495 24.8333 33.7495 23.75C33.7495 22.6667 33.3953 21.7708 32.687 21.0625C31.9787 20.3542 31.0828 20 29.9995 20C28.9162 20 28.0203 20.3542 27.312 21.0625C26.6037 21.7708 26.2495 22.6667 26.2495 23.75C26.2495 24.8333 26.6037 25.7292 27.312 26.4375C28.0203 27.1458 28.9162 27.5 29.9995 27.5Z" fill="white"/>
</g>
</svg>
