<svg width="43" height="43" viewBox="0 0 43 43" fill="none" xmlns="http://www.w3.org/2000/svg">
<path d="M43 21.5C43 22.7561 42.8913 23.9886 42.6835 25.1833C42.5702 25.8255 42.4332 26.4583 42.2679 27.0816C41.3517 30.5004 39.6138 33.5793 37.2808 36.1009C36.4354 37.017 35.5098 37.8576 34.5133 38.6131C33.5971 39.312 32.6195 39.94 31.5947 40.4878C30.2062 41.2292 28.728 41.8195 27.179 42.2445C25.3702 42.7403 23.467 43 21.5023 43C20.6003 43 19.7125 42.9433 18.8435 42.8347C11.5611 41.9375 5.40274 37.3948 2.25744 31.0907C1.02954 28.6352 0.259752 25.9152 0.056677 23.0394C0.0188956 22.5294 0 22.0147 0 21.5C0 18.2559 0.717849 15.1817 2.00242 12.424C3.15003 9.95904 4.75573 7.74907 6.70148 5.9027C8.50082 4.19328 10.5977 2.7908 12.9071 1.78498C15.5376 0.637492 18.4468 0 21.4976 0C30.7682 0 38.6693 5.86492 41.687 14.0909C42.438 16.1403 42.8866 18.3314 42.9811 20.6217C42.9952 20.9097 43 21.2025 43 21.5Z" fill="url(#paint0_radial_456_1272)"/>
<path d="M2.2535 31.0908C2.1071 30.798 1.96542 30.4958 1.83318 30.1935C0.855591 27.9883 0.241646 25.5942 0.0574617 23.0773C0.0574617 23.0631 0.057457 23.0536 0.0527344 23.0395C0.48722 22.9828 1.08228 23.1811 1.51677 24.4042C2.07876 25.9955 4.69513 29.8724 2.2535 31.0908Z" fill="#BCBCBC"/>
<path d="M19.1421 27.4358C19.1137 27.6105 19.0523 27.7758 18.9626 27.9269C18.2778 29.1546 15.8929 29.7591 13.234 29.301C10.9199 28.8996 9.07332 27.8041 8.47827 26.6141C8.30353 26.2647 8.23741 25.9105 8.29881 25.5563C8.568 24.0075 11.1702 23.6344 14.1644 24.1586C17.1585 24.6733 19.4113 25.8869 19.1421 27.4358Z" fill="#BCBCBC"/>
<path d="M12.771 17.1982L12.7663 17.2029C12.1712 18.1002 10.3152 17.2785 8.15695 15.8666C6.39539 14.7144 5.13915 13.5669 5.05415 12.6933C5.03526 12.4949 5.07777 12.3061 5.18639 12.1361C5.78145 11.2294 8.14278 11.168 10.3058 12.5847C12.4688 14.0013 13.3661 16.2916 12.771 17.1982Z" fill="#BCBCBC"/>
<path d="M36.592 30.4391C34.8494 31.8935 32.7619 32.2665 31.9355 31.2701C31.893 31.2182 31.8552 31.1663 31.8221 31.1096C31.1893 30.0754 31.9449 28.2196 33.5979 26.8455C35.2791 25.443 37.2768 25.0463 38.16 25.9105C38.193 25.9436 38.2261 25.9766 38.2544 26.0097C39.0809 27.006 38.3394 28.9893 36.592 30.4391Z" fill="#BCBCBC"/>
<path d="M24.0199 18.5157C22.2583 19.9087 20.4684 20.6784 19.4436 19.3845C19.3444 19.2618 19.2641 19.1295 19.1933 18.9879C18.5416 17.6751 19.1839 15.7721 20.7801 14.5113C22.5417 13.1182 24.9455 12.4618 26.5843 14.5349C26.5937 14.549 26.6079 14.5632 26.6126 14.5774C27.5761 15.8571 25.7673 17.1368 24.0199 18.5157Z" fill="#BCBCBC"/>
<path d="M16.9839 37.971C16.7288 38.2165 16.2235 38.3535 15.4301 38.3157C12.5209 38.1882 9.36145 34.6466 10.2446 33.5085C10.2588 33.4897 10.2729 33.4755 10.2871 33.4613C11.2033 32.4272 13.4985 34.2877 14.6697 34.9016C16.6013 35.9121 17.6592 37.3241 16.9839 37.971Z" fill="#BCBCBC"/>
<path d="M28.3941 35.3596C28.3988 36.0301 27.4874 36.7384 26.0517 36.7998C23.4259 36.9132 21.9288 36.4079 21.5746 35.4729C21.5368 35.3737 21.5132 35.2698 21.499 35.1565C21.3715 34.0185 23.7753 34.2121 25.041 34.146C27.4165 34.0185 28.3894 34.6701 28.3941 35.3596Z" fill="#BCBCBC"/>
<path d="M36.3516 20.2723C36.0635 20.702 35.5062 20.9948 34.7837 20.9948C32.5073 20.9948 29.4706 19.3515 29.8532 17.831C29.8957 17.6563 29.9618 17.5051 30.0374 17.3824C30.623 16.4379 32.1012 16.896 33.5227 17.1982C36.3658 17.8026 36.975 19.3515 36.3516 20.2723Z" fill="#BCBCBC"/>
<path d="M28.9597 9.10434C28.9314 9.03823 28.9172 8.96267 28.9078 8.8824C28.8511 8.23546 29.4887 7.29103 30.7307 6.95103C31.5383 6.72909 32.6292 6.75742 33.3046 7.17297C33.6021 7.35714 33.8146 7.61214 33.8949 7.96158C34.0838 8.83045 29.3612 10.1102 28.9597 9.10434Z" fill="#BCBCBC"/>
<path d="M15.982 7.09271C15.8214 7.18715 15.6325 7.15882 15.4294 6.95576C14.0362 5.56273 13.9135 3.28664 14.6691 2.90887C14.9666 2.75776 15.2264 2.71054 15.4483 2.73415C16.9596 2.90415 16.7943 6.6016 15.982 7.09271Z" fill="#BCBCBC"/>
<path d="M39.8366 15.0495C39.7375 15.0967 39.6194 15.1062 39.4919 15.0731C38.9629 14.9362 38.2734 14.124 38.0656 12.9009C37.9476 12.1832 38.3065 11.4937 38.774 11.2765C39.2935 11.031 39.95 11.3709 40.2145 12.9009C40.3703 13.7698 40.3467 14.7945 39.8366 15.0495Z" fill="#BCBCBC"/>
<path d="M37.2811 36.101C35.6518 37.8624 33.7297 39.3499 31.595 40.4832C31.3542 40.3651 31.1369 40.1904 31.0519 39.9401C30.9763 39.7182 31.0094 39.4349 31.2408 39.076C32.124 37.6829 33.0118 35.5343 35.0331 35.4068C35.6235 35.3691 36.091 35.4399 36.4641 35.5721C36.823 35.7043 37.0875 35.8932 37.2811 36.101Z" fill="#BCBCBC"/>
<path d="M27.1754 42.2397C25.3666 42.7356 23.4633 42.9953 21.4987 42.9953C20.5967 42.9953 19.7088 42.9386 18.8398 42.83C18.8398 42.575 18.8871 42.3011 19.0429 42.0697C19.194 41.8478 19.4444 41.6683 19.8552 41.6022C21.3712 41.3472 22.1316 40.3367 24.2804 40.4642C25.3949 40.5303 26.1742 41.0734 26.6606 41.5786C26.9015 41.8336 27.0667 42.0697 27.1754 42.2397Z" fill="#BCBCBC"/>
<path d="M24.4261 3.06465C24.3175 3.60298 23.406 3.79659 22.9668 3.59354C22.8724 3.55104 22.8015 3.48965 22.7638 3.41409C22.5087 2.90882 24.1758 1.96439 24.4072 2.78132C24.4356 2.88521 24.4403 2.97965 24.4261 3.06465Z" fill="#BCBCBC"/>
<path d="M17.8329 31.4873C17.2662 31.204 16.8222 30.9821 16.9497 32.1201C17.0773 33.2582 17.9604 33.5131 18.7207 33.5131C19.4764 33.5131 18.3382 31.7423 17.8329 31.4873Z" fill="#9B9B9B"/>
<path d="M7.33367 30.7319C6.82834 30.6044 6.82834 31.4921 6.45053 32.3752C6.07271 33.2582 6.57804 33.891 7.33367 33.891C8.09402 33.891 8.34432 30.9822 7.33367 30.7319Z" fill="#9B9B9B"/>
<path d="M5.0582 19.3467C4.57176 19.1248 4.04754 18.8414 3.92003 19.3467C3.79252 19.852 4.93068 21.245 5.56352 21.245C6.19636 21.245 6.44666 19.9795 5.0582 19.3467Z" fill="#9B9B9B"/>
<path d="M42.9996 21.5C42.9996 22.7561 42.891 23.9886 42.6832 25.1833C42.499 25.1124 42.3101 24.9849 42.1118 24.7866C40.8461 23.5211 41.8048 21.7266 42.1118 21.1175C42.4518 20.4375 42.7918 20.4989 42.9807 20.6169C42.9949 20.9097 42.9996 21.2025 42.9996 21.5Z" fill="#9B9B9B"/>
<path d="M29.974 22.8883C29.242 22.7986 28.8359 23.3936 29.974 23.8989C31.1122 24.4089 30.9847 23.0158 29.974 22.8883Z" fill="#9B9B9B"/>
<path d="M2.78098 17.1982C2.44095 17.3682 2.40317 18.0812 3.28631 17.9585C4.16945 17.831 3.53661 16.8204 2.78098 17.1982Z" fill="#9B9B9B"/>
<path d="M20.7415 8.34881C20.3637 8.47631 19.8584 8.85408 20.7415 8.98158C21.6247 9.10435 21.1193 8.22131 20.7415 8.34881Z" fill="#9B9B9B"/>
<path d="M22.89 8.34879C22.4272 8.07963 22.3847 9.35933 22.7625 9.8646C23.1403 10.3699 24.406 9.23183 22.89 8.34879Z" fill="#9B9B9B"/>
<path d="M26.9376 38.3203C26.6637 38.3817 26.5598 38.8255 27.3154 39.0805C28.0758 39.3308 28.0758 38.0653 26.9376 38.3203Z" fill="#9B9B9B"/>
<path d="M15.9334 40.4689C15.5556 40.5964 15.173 40.8467 15.9334 41.1017C16.6937 41.352 16.3112 40.3414 15.9334 40.4689Z" fill="#9B9B9B"/>
<path d="M16.5664 21.8777C15.9241 21.9107 17.3267 22.7607 17.7045 22.8882C18.0824 23.0157 19.2205 21.7502 16.5664 21.8777Z" fill="#9B9B9B"/>
<path d="M37.3087 18.5912C36.9923 18.8367 37.5637 20.2345 38.0691 20.107C38.5744 19.9795 38.4469 17.7034 37.3087 18.5912Z" fill="#9B9B9B"/>
<path d="M27.1372 27.4547C27.0805 27.6719 27.0097 27.8844 26.9389 28.0733C26.5705 29.0602 24.3933 29.4474 23.8172 28.9941C23.803 28.9847 23.7888 28.9705 23.7747 28.9563C23.2693 28.4511 23.7605 27.1808 24.0297 26.5527C24.4075 25.6697 26.306 25.0369 26.9389 25.2872C27.4489 25.4997 27.3828 26.5339 27.1372 27.4547Z" fill="#BCBCBC"/>
<path d="M5.05415 12.6979C5.03526 12.4996 5.07777 12.3107 5.18639 12.1407C5.78145 11.234 8.14278 11.1727 10.3058 12.5893C12.4688 14.006 13.3661 16.2962 12.771 17.2029L12.7663 17.2076C12.7993 16.6551 12.5679 15.8807 11.7604 14.7993C9.65404 11.9896 5.8145 11.0216 5.05415 12.6979Z" fill="#9B9B9B"/>
<path d="M19.1421 27.4357C19.1137 27.6104 19.0523 27.7757 18.9626 27.9268C18.9107 27.7096 18.4431 26.0049 16.3132 25.2919C14.103 24.5552 11.1277 23.8988 9.35668 25.2919C8.78996 25.7357 8.54911 26.1938 8.47827 26.6093C8.30353 26.2599 8.23741 25.9057 8.29881 25.5516C8.568 24.0027 11.1702 23.6297 14.1644 24.1538C17.1585 24.6733 19.4113 25.8869 19.1421 27.4357Z" fill="#9B9B9B"/>
<path d="M22.6361 14.1618C20.2842 14.974 19.2925 17.2785 19.1933 18.9879C18.5416 17.6751 19.1839 15.7721 20.7801 14.5113C22.5417 13.1182 24.9455 12.4618 26.5843 14.5349C26.5937 14.549 26.6079 14.5632 26.6126 14.5774C25.9042 14.0296 24.6149 13.4818 22.6361 14.1618Z" fill="#9B9B9B"/>
<path d="M27.1364 27.4547C27.1128 26.5386 26.8861 25.5044 25.9274 25.7972C24.9451 26.0994 23.8305 27.8797 23.8211 28.9941C23.8069 28.9847 23.7927 28.9705 23.7786 28.9563C23.2732 28.4511 23.7644 27.1808 24.0336 26.5527C24.4114 25.6697 26.3099 25.0369 26.9428 25.2872C27.4481 25.4997 27.382 26.5339 27.1364 27.4547Z" fill="#9B9B9B"/>
<path d="M36.3512 20.2723C36.6393 18.6054 33.9662 18.0671 32.6297 17.5807C31.3073 17.099 30.4006 17.269 30.0322 17.3824C30.6178 16.4379 32.096 16.896 33.5176 17.1982C36.3653 17.8026 36.9746 19.3515 36.3512 20.2723Z" fill="#9B9B9B"/>
<path d="M28.9602 9.10438C28.9318 9.03827 28.9176 8.96271 28.9082 8.88243C29.7063 9.41132 31.7513 8.9816 32.88 8.47161C33.6876 8.10328 33.5553 7.56495 33.305 7.17773C33.6025 7.3619 33.8151 7.61689 33.8953 7.96633C34.0843 8.83049 29.3616 10.1102 28.9602 9.10438Z" fill="#9B9B9B"/>
<path d="M15.982 7.09271C15.8214 7.18715 15.6325 7.15882 15.4294 6.95576C14.0362 5.56273 13.9135 3.28664 14.6691 2.90887C14.9666 2.75776 15.2264 2.71054 15.4483 2.73415C15.1414 2.79082 14.6691 3.05998 14.6691 4.17441C14.6691 5.45884 15.2878 6.51188 15.982 7.09271Z" fill="#9B9B9B"/>
<path d="M24.4261 3.06465C24.3836 2.84743 24.2136 2.63966 23.6516 2.78132C23.1935 2.89465 23.0188 3.2441 22.9668 3.59354C22.8724 3.55104 22.8015 3.48965 22.7638 3.41409C22.5087 2.90882 24.1758 1.96439 24.4072 2.78132C24.4356 2.88521 24.4403 2.97965 24.4261 3.06465Z" fill="#9B9B9B"/>
<path d="M16.9839 37.971C16.8752 37.291 16.2519 36.6299 15.1751 36.0396C13.7819 35.2794 12.7712 34.5238 11.8881 33.891C11.4253 33.5605 10.7877 33.4708 10.2871 33.4613C11.2033 32.4272 13.4985 34.2877 14.6698 34.9016C16.6013 35.9121 17.6592 37.3241 16.9839 37.971Z" fill="#9B9B9B"/>
<path d="M28.3941 35.3595C28.1911 34.8543 27.5771 34.6465 26.557 34.6465H23.015C21.6596 34.6465 21.5746 35.4304 21.5746 35.4681C21.5368 35.369 21.5132 35.2651 21.499 35.1518C21.3715 34.0137 23.7753 34.2073 25.041 34.1412C27.4165 34.0184 28.3894 34.6701 28.3941 35.3595Z" fill="#9B9B9B"/>
<path d="M26.6606 41.5834C26.9015 41.8289 27.0667 42.0698 27.1754 42.2398C25.3666 42.7356 23.4633 42.9953 21.4987 42.9953C20.5967 42.9953 19.7088 42.9386 18.8398 42.83C18.8398 42.575 18.8871 42.3011 19.0429 42.0698C23.2461 43.0614 25.6688 42.1406 26.6606 41.5834Z" fill="#9B9B9B"/>
<path d="M37.281 36.1009C35.6516 37.8623 33.7295 39.3498 31.5949 40.4831C31.354 40.3651 31.1368 40.1903 31.0518 39.9401C34.5796 38.6179 36.105 36.2237 36.4639 35.5768C36.8229 35.7043 37.0873 35.8932 37.281 36.1009Z" fill="#9B9B9B"/>
<path d="M38.16 25.9106C37.8766 25.8114 35.86 25.2495 33.5128 27.9458C32.3275 29.3105 31.9166 30.3683 31.8221 31.1097C31.1893 30.0755 31.9449 28.2197 33.5979 26.8456C35.2791 25.4478 37.2768 25.0464 38.16 25.9106Z" fill="#9B9B9B"/>
<path d="M39.4919 15.0685C38.9629 14.9315 38.2734 14.1193 38.0656 12.8963C37.9476 12.1785 38.3065 11.4891 38.774 11.2719C38.571 11.541 38.3821 11.9518 38.4434 12.5185C38.5521 13.4346 38.8968 14.3507 39.4919 15.0685Z" fill="#9B9B9B"/>
<path d="M2.2535 31.0908C2.1071 30.798 1.96542 30.4958 1.83318 30.1935C2.43769 29.6458 3.03275 28.6447 2.27712 27.0628C1.34203 25.1031 0.888652 23.4172 0.0574617 23.0773C0.0574617 23.0631 0.057457 23.0536 0.0527344 23.0395C0.48722 22.9828 1.08228 23.1811 1.51677 24.4042C2.07876 25.9955 4.69513 29.8724 2.2535 31.0908Z" fill="#9B9B9B"/>
<path opacity="0.45" d="M34.5133 38.6131C33.5971 39.312 32.6195 39.9401 31.5947 40.4878C30.2062 41.2292 28.728 41.8195 27.179 42.2445C25.3702 42.7403 23.467 43 21.5023 43C20.6003 43 19.7125 42.9433 18.8435 42.8347C11.5611 41.9375 5.40274 37.3948 2.25744 31.0907C1.02954 28.6352 0.259752 25.9152 0.056677 23.0394C0.0188956 22.5294 0 22.0147 0 21.5C0 18.2559 0.717849 15.1818 2.00242 12.424C3.15003 9.95905 4.75573 7.74908 6.70148 5.90271C0.70368 34.5048 22.7633 38.4667 34.5133 38.6131Z" fill="url(#paint1_linear_456_1272)"/>
<path d="M42.9991 21.5C42.9991 22.7561 42.8905 23.9886 42.6827 25.1833C42.5694 25.8255 42.4324 26.4583 42.2671 27.0816C41.5209 9.78904 29.8087 -0.0424991 12.9062 1.78498C15.5368 0.637492 18.4459 0 21.4968 0C30.7674 0 38.6684 5.86492 41.6862 14.0909C42.4371 16.1403 42.8858 18.3314 42.9802 20.6217C42.9944 20.9097 42.9991 21.2025 42.9991 21.5Z" fill="url(#paint2_linear_456_1272)"/>
<defs>
<radialGradient id="paint0_radial_456_1272" cx="0" cy="0" r="1" gradientUnits="userSpaceOnUse" gradientTransform="translate(20.5504 10.1176) scale(32.8324 32.8288)">
<stop stop-color="#E8E8E8"/>
<stop offset="1" stop-color="#DFDFDF"/>
</radialGradient>
<linearGradient id="paint1_linear_456_1272" x1="17.3443" y1="52.5955" x2="17.1346" y2="-0.685461" gradientUnits="userSpaceOnUse">
<stop/>
<stop offset="1" stop-opacity="0.2"/>
</linearGradient>
<linearGradient id="paint2_linear_456_1272" x1="40.6232" y1="-0.00949" x2="27.5434" y2="14.4842" gradientUnits="userSpaceOnUse">
<stop stop-color="#B7B7B7"/>
<stop offset="0.557292" stop-color="#AEAEAE" stop-opacity="0.2"/>
</linearGradient>
</defs>
</svg>
