<svg width="47" height="48" viewBox="0 0 47 48" fill="none" xmlns="http://www.w3.org/2000/svg">
<path d="M25 48C22.1054 48 19.3828 47.4261 16.8322 46.2784C14.2816 45.1307 12.0619 43.5687 10.1733 41.5925C8.28468 39.6163 6.78546 37.2937 5.67564 34.6248C4.56583 31.9558 4.01092 29.097 4.01092 26.0482C4.01092 22.9994 4.56583 20.1438 5.67564 17.4812C6.78546 14.8186 8.28468 12.4924 10.1733 10.5026C12.0619 8.51274 14.2816 6.94398 16.8322 5.7963C19.3828 4.64858 22.1054 4.07472 25 4.07472C27.8946 4.07472 30.6172 4.64858 33.1679 5.7963C35.7185 6.94398 37.9446 8.51274 39.8462 10.5026C41.7478 12.4924 43.247 14.8186 44.3439 17.4812C45.4407 20.1438 45.9891 22.9994 45.9891 26.0482C45.9891 29.097 45.4407 31.9558 44.3439 34.6248C43.247 37.2937 41.7478 39.6163 39.8462 41.5925C37.9446 43.5687 35.7185 45.1307 33.1679 46.2784C30.6172 47.4261 27.8946 48 25 48ZM31.8925 36.1019L34.6184 33.2496L27.0639 25.3447V13.854H23.1698V26.9746L31.8925 36.1019ZM9.69626 0L12.4221 2.85231L2.72588 12.7538L0 9.90152L9.69626 0ZM40.3037 0L50 9.90152L47.2742 12.7538L37.5779 2.85231L40.3037 0ZM25.0017 43.9253C29.7643 43.9253 33.8039 42.1896 37.1204 38.7181C40.4368 35.2467 42.095 31.0192 42.095 26.0356C42.095 21.0521 40.4363 16.8251 37.1187 13.3548C33.8011 9.88453 29.761 8.14938 24.9984 8.14938C20.2357 8.14938 16.1961 9.88512 12.8797 13.3566C9.5632 16.828 7.90497 21.0555 7.90497 26.0391C7.90497 31.0227 9.56376 35.2496 12.8814 38.7199C16.1989 42.1902 20.239 43.9253 25.0017 43.9253Z" fill="white"/>
</svg>
