<svg width="175" height="175" viewBox="0 0 175 175" fill="none" xmlns="http://www.w3.org/2000/svg">
<path d="M87.4732 174.155C54.5168 174.155 25.8048 155.96 10.9408 129.093C-21.8517 69.8526 23.3794 -2.06173 89.407 0.0452329C131.41 0.894551 166.89 31.7477 173.658 72.7762C182.54 125.728 141.488 174.155 87.4732 174.155Z" fill="url(#paint0_radial_456_1249)"/>
<g opacity="0.75">
<path d="M122.167 101.163C118.545 100.265 117.545 104.756 119.594 105.769C121.642 106.798 126.788 109.869 127.821 107.811C128.853 105.769 126.28 102.192 122.167 101.163Z" fill="#056DB1"/>
<path d="M158.138 63.2704C154.631 64.0708 150.436 65.8347 154.025 68.399C157.63 70.9633 163.268 69.9343 163.792 66.8637C164.3 63.7768 164.824 61.7351 158.138 63.2704Z" fill="#056DB1"/>
<path d="M87.7351 145.72C80.1966 141.212 69.2329 139.578 68.2005 144.184C67.168 148.79 74.3624 155.96 83.0972 154.931C91.8485 153.919 92.8809 148.79 87.7351 145.72Z" fill="#056DB1"/>
<path d="M112.317 170.579C105.516 172.587 98.371 173.796 90.98 174.074C92.668 163.408 102.845 166.773 108.286 168.243C109.875 168.684 111.203 169.55 112.317 170.579Z" fill="#056DB1"/>
<path d="M39.9476 145.213C43.2744 146.667 45.6015 139.578 40.9801 133.437C36.3586 127.296 34.2937 119.603 28.6399 118.068C22.986 116.532 19.905 136.508 39.9476 145.213Z" fill="#056DB1"/>
<path d="M17.332 120.109C15.513 120.436 14.7591 124.209 18.8725 124.715C22.9859 125.238 22.9859 119.097 17.332 120.109Z" fill="#056DB1"/>
<path d="M63.0712 99.1216C59.4494 98.795 55.8769 100.657 56.3849 104.757C56.8929 108.856 62.5468 104.757 65.1197 104.757C67.6926 104.757 68.7251 99.628 63.0712 99.1216Z" fill="#056DB1"/>
<path d="M98.535 51.4943C95.4213 50.0244 94.9296 56.6229 97.5026 57.6356C100.076 58.6646 107.27 55.5776 98.535 51.4943Z" fill="#056DB1"/>
</g>
<path d="M65.6441 84.7813C48.1744 87.8519 45.6015 88.3582 29.6723 101.686C19.1347 110.489 8.13833 107.647 1.91086 104.708C0.747303 99.0237 0.124512 93.1274 0.124512 87.0842C0.124512 62.3233 10.4982 39.9634 27.1485 24.1204C30.5736 26.1457 34.1134 28.8896 36.8666 32.5482C44.569 42.789 43.0285 46.8886 65.6441 58.6647C88.2433 70.4408 83.1138 81.7106 65.6441 84.7813Z" fill="url(#paint1_linear_456_1249)"/>
<path d="M166.431 49.7794C150.305 46.4148 139.309 64.5935 128.329 63.2705C115.48 61.7352 119.086 42.7889 108.286 22.8136C102.878 12.8178 102.501 5.89259 103.468 1.48267C131.377 6.61124 154.615 24.9696 166.431 49.7794Z" fill="url(#paint2_linear_456_1249)"/>
<path d="M174.838 87.0842C174.838 120.877 155.533 150.162 127.313 164.601C120.872 154.458 131.311 146.928 143.75 139.072C159.171 129.338 144.782 125.238 147.339 109.362C149.912 93.4867 140.145 92.4577 144.766 79.1463C148.06 69.6405 165.235 78.6563 174.789 84.6015C174.822 85.4182 174.838 86.2512 174.838 87.0842Z" fill="url(#paint3_linear_456_1249)"/>
<path d="M92.881 113.462C83.5398 116.353 78.4922 105.263 66.6764 107.827C54.8606 110.391 45.0933 131.379 61.0225 130.873C76.9517 130.367 81.0652 128.309 92.881 136.508C104.697 144.707 118.578 139.072 122.691 126.267C126.788 113.462 124.215 103.728 92.881 113.462Z" fill="url(#paint4_linear_456_1249)"/>
<path d="M112.399 75.0467C107.483 76.6146 106.238 79.1462 107.778 82.2169C109.318 85.2875 115.48 84.7811 118.561 89.3871C121.642 93.993 129.361 99.6279 131.41 89.3871C133.475 79.1462 123.707 71.4534 112.399 75.0467Z" fill="url(#paint5_linear_456_1249)"/>
<path opacity="0.5" d="M94.4218 48.4076C93.504 55.2348 87.2274 48.4076 76.9521 46.366C66.6767 44.3243 62.5633 38.1668 67.1848 34.0672C71.8062 29.9676 77.9682 26.897 84.1465 30.4739C90.3084 34.0672 95.4378 40.7311 94.4218 48.4076Z" fill="#056DB1"/>
<path d="M83.6217 7.95065C70.7735 7.95065 64.6116 15.1209 52.7958 19.2205C45.7489 21.6541 40.1769 18.8285 36.8174 16.1498C51.1078 5.99069 68.5939 0.0128174 87.4894 0.0128174C88.1449 0.0128174 88.784 0.0127994 89.4231 0.0454655C90.3245 3.73673 89.9967 7.95065 83.6217 7.95065Z" fill="url(#paint6_linear_456_1249)"/>
<path opacity="0.45" d="M170.675 113.723C163.546 135.854 147.765 154.131 127.312 164.601C122.543 167.034 117.529 169.043 112.317 170.595C105.516 172.604 98.3711 173.812 90.98 174.09C89.8165 174.139 88.653 174.155 87.473 174.155C54.5166 174.155 25.8046 155.96 10.9407 129.093C6.77808 121.579 3.69716 113.38 1.91086 104.707C0.747303 99.0234 0.124512 93.1272 0.124512 87.084C0.124512 76.5655 1.99277 66.488 5.41788 57.1619C15.2999 86.5777 37.9155 124.536 89.3249 131.575C99.3544 132.947 108.728 133.127 117.48 132.375C138.948 130.497 156.614 123.017 170.675 113.723Z" fill="url(#paint7_linear_456_1249)"/>
<path opacity="0.45" d="M174.838 87.084C174.838 96.3775 173.38 105.328 170.676 113.723C163.547 135.854 147.765 154.131 127.313 164.601C122.544 167.034 117.529 169.043 112.318 170.595C105.517 172.604 98.3713 173.812 90.9803 174.09C89.8168 174.139 88.6532 174.155 87.4733 174.155C54.5169 174.155 25.8049 155.96 10.9409 129.093C26.0507 135.283 44.0448 139.513 65.3821 140.346C86.0803 141.163 103.255 137.978 117.48 132.359C148.06 120.305 165.104 96.9818 174.346 77.7742C174.592 80.0118 174.74 82.2984 174.805 84.5851C174.822 85.4181 174.838 86.251 174.838 87.084Z" fill="url(#paint8_linear_456_1249)"/>
<path d="M173.674 72.8251C173.674 72.8251 161.236 27.4192 104.042 12.4745C69.7577 3.50768 45.9621 11.5925 32.4092 19.4977C75.6901 -15.7163 141.882 -1.73524 166.431 49.7792C172.134 61.7186 173.265 71.1591 173.674 72.8251Z" fill="url(#paint9_linear_456_1249)"/>
<defs>
<radialGradient id="paint0_radial_456_1249" cx="0" cy="0" r="1" gradientUnits="userSpaceOnUse" gradientTransform="translate(91.8103 53.0103) scale(106.022 105.665)">
<stop stop-color="#00B3DC"/>
<stop offset="1" stop-color="#056DB0"/>
</radialGradient>
<linearGradient id="paint1_linear_456_1249" x1="30.0744" y1="-47.1534" x2="49.9812" y2="203.287" gradientUnits="userSpaceOnUse">
<stop stop-color="#F2F236"/>
<stop offset="1" stop-color="#F2F236" stop-opacity="0"/>
</linearGradient>
<linearGradient id="paint2_linear_456_1249" x1="128.104" y1="-54.9457" x2="148.011" y2="195.494" gradientUnits="userSpaceOnUse">
<stop stop-color="#F2F236"/>
<stop offset="1" stop-color="#F2F236" stop-opacity="0"/>
</linearGradient>
<linearGradient id="paint3_linear_456_1249" x1="135.888" y1="-55.5644" x2="155.795" y2="194.875" gradientUnits="userSpaceOnUse">
<stop stop-color="#F2F236"/>
<stop offset="1" stop-color="#F2F236" stop-opacity="0"/>
</linearGradient>
<linearGradient id="paint4_linear_456_1249" x1="74.6745" y1="-50.6986" x2="94.5812" y2="199.742" gradientUnits="userSpaceOnUse">
<stop stop-color="#F2F236"/>
<stop offset="1" stop-color="#F2F236" stop-opacity="0"/>
</linearGradient>
<linearGradient id="paint5_linear_456_1249" x1="108.501" y1="-53.3878" x2="128.408" y2="197.053" gradientUnits="userSpaceOnUse">
<stop stop-color="#F2F236"/>
<stop offset="1" stop-color="#F2F236" stop-opacity="0"/>
</linearGradient>
<linearGradient id="paint6_linear_456_1249" x1="58.6019" y1="-49.4212" x2="78.5088" y2="201.019" gradientUnits="userSpaceOnUse">
<stop stop-color="#F2F236"/>
<stop offset="1" stop-color="#F2F236" stop-opacity="0"/>
</linearGradient>
<linearGradient id="paint7_linear_456_1249" x1="74.1941" y1="199.803" x2="87.2105" y2="80.7239" gradientUnits="userSpaceOnUse">
<stop stop-color="#00ACD8"/>
<stop offset="1" stop-color="#0983BD"/>
</linearGradient>
<linearGradient id="paint8_linear_456_1249" x1="83.0042" y1="194.684" x2="97.5521" y2="70.2261" gradientUnits="userSpaceOnUse">
<stop stop-color="#056EB1"/>
<stop offset="1" stop-color="#00A9D7" stop-opacity="0.3"/>
</linearGradient>
<linearGradient id="paint9_linear_456_1249" x1="150.92" y1="-47.9409" x2="96.2284" y2="60.2717" gradientUnits="userSpaceOnUse">
<stop stop-color="#E2FFB5"/>
<stop offset="1" stop-color="#FFFFB3" stop-opacity="0"/>
</linearGradient>
</defs>
</svg>
