<svg width="145" height="144" viewBox="0 0 145 144" fill="none" xmlns="http://www.w3.org/2000/svg">
<path d="M65.5302 0.359815C9.81017 5.63981 -20.1798 71.9698 16.7302 117.27C33.7802 138.28 62.2602 148.68 90.3402 141.45C105.38 137.57 118.38 128.97 127.65 117.78C168.1 69.1498 130 -5.79019 65.5302 0.359815Z" fill="url(#paint0_radial_291_480)"/>
<path d="M127.95 71.87C127.95 73.51 127.88 75.13 127.74 76.74C127.61 78.24 127.42 79.72 127.17 81.18C126.93 82.61 126.63 84.02 126.29 85.4C125.28 89.43 123.83 93.29 122 96.91C121.41 98.07 120.78 99.21 120.12 100.33C118.88 102.4 117.52 104.39 116.02 106.28C115.26 107.24 114.48 108.17 113.66 109.07C108.39 114.92 101.89 119.64 94.5798 122.83C94.0398 123.07 93.4898 123.29 92.9398 123.51C91.3098 124.16 89.6498 124.73 87.9498 125.23C86.7398 125.58 85.5198 125.89 84.2798 126.16C80.4498 126.99 76.4698 127.43 72.3898 127.43C56.6298 127.43 42.4098 120.87 32.2898 110.33C31.0898 109.08 29.9498 107.77 28.8698 106.41C26.6698 103.65 24.7398 100.67 23.0898 97.52C22.6698 96.72 22.2698 95.9 21.8898 95.07C20.4998 92.06 19.3798 88.91 18.5498 85.64C17.4198 81.23 16.8198 76.61 16.8198 71.85C16.8198 68.92 17.0498 66.05 17.4798 63.25C17.6498 62.17 17.8398 61.11 18.0698 60.06C18.3198 58.88 18.6198 57.72 18.9398 56.57C19.5398 54.46 20.2698 52.39 21.1098 50.39C22.6298 46.76 24.5298 43.32 26.7498 40.13C28.1098 38.18 29.5898 36.32 31.1798 34.56C34.1898 31.24 37.5898 28.29 41.3098 25.77C41.4298 25.69 41.5498 25.61 41.6698 25.53C44.1498 23.88 46.7698 22.43 49.5098 21.19C54.9498 18.73 60.8498 17.12 67.0498 16.54C68.7998 16.37 70.5698 16.29 72.3598 16.29C77.6998 16.29 82.8698 17.05 87.7598 18.45C89.8398 19.05 91.8698 19.76 93.8398 20.59C94.5798 20.9 95.3098 21.22 96.0298 21.56C99.0298 22.97 101.88 24.65 104.56 26.55C107.46 28.62 110.15 30.95 112.6 33.52C117.3 38.46 121.1 44.25 123.74 50.65C124.07 51.45 124.39 52.27 124.68 53.09C125.62 55.71 126.37 58.42 126.91 61.21C127.6 64.68 127.95 68.24 127.95 71.87Z" fill="url(#paint1_radial_291_480)"/>
<path d="M127.95 71.87C127.95 76.54 127.37 81.07 126.29 85.4C98.5398 73.5 50.8198 95.4 18.5498 85.65C17.4198 81.24 16.8198 76.62 16.8198 71.86C16.8198 68.93 17.0498 66.06 17.4798 63.26C74.1898 83.36 94.8098 55.39 126.93 61.24C127.6 64.68 127.95 68.24 127.95 71.87Z" fill="url(#paint2_linear_291_480)"/>
<path d="M124.71 53.1202C94.49 48.0302 59.32 68.8702 18.96 56.5802C19.56 54.4702 20.29 52.4002 21.13 50.4002C53.89 63.1502 93.39 46.9102 123.77 50.6802C124.1 51.4902 124.42 52.3002 124.71 53.1202Z" fill="url(#paint3_linear_291_480)"/>
<path d="M112.63 33.5598C80.85 53.1698 40.71 44.1998 26.77 40.1498C28.13 38.1998 29.61 36.3398 31.2 34.5798C70.88 44.6898 95.66 32.4198 104.59 26.5898C107.49 28.6498 110.18 30.9898 112.63 33.5598Z" fill="url(#paint4_linear_291_480)"/>
<path d="M96.0601 21.5899C82.7001 30.2299 64.6101 24.4499 41.3301 25.7899C43.9201 24.0399 46.6601 22.5099 49.5301 21.2099C63.6201 21.8199 83.5101 26.4999 93.8701 20.6099C94.6101 20.9199 95.3401 21.2499 96.0601 21.5899Z" fill="url(#paint5_linear_291_480)"/>
<path d="M87.7999 18.4701C84.0399 20.3001 77.0598 21.8601 67.0898 16.5601C68.8398 16.3901 70.6098 16.3101 72.3998 16.3101C77.7398 16.3101 82.8999 17.0601 87.7999 18.4701Z" fill="url(#paint6_linear_291_480)"/>
<path d="M122 96.9099C121.41 98.0699 120.78 99.2099 120.12 100.33C96.2499 89.5199 52.1899 101.54 23.0999 97.5399C22.6799 96.7399 22.2799 95.9199 21.8999 95.0899C60.0299 99.7999 101.38 84.2699 122 96.9099Z" fill="url(#paint7_linear_291_480)"/>
<path d="M87.9501 125.22C86.7401 125.57 85.5201 125.88 84.2801 126.15C74.0201 124.48 42.3201 106.51 32.2901 110.33C31.0901 109.08 29.9501 107.77 28.8701 106.41C51.1501 106.19 74.6801 124.16 87.9501 125.22Z" fill="url(#paint8_linear_291_480)"/>
<path d="M113.67 109.07C108.4 114.92 101.9 119.64 94.5902 122.83C84.1102 119.66 78.0602 113.46 74.4002 111.71C69.0502 109.14 67.4402 107.09 88.0502 105.55C98.5502 104.75 107.46 106.84 113.67 109.07Z" fill="url(#paint9_linear_291_480)"/>
<path opacity="0.45" d="M127.18 81.1801C123.51 103.16 106.63 121.27 84.29 126.16C44.62 134.79 9.52999 99.4701 18.09 60.0801C22.69 68.7801 32.92 78.0601 55.24 81.5201C89.02 86.7401 111.02 77.4301 127.18 81.1801Z" fill="url(#paint10_linear_291_480)"/>
<path opacity="0.55" d="M115.13 107.38C114.66 107.95 114.17 108.52 113.67 109.07C108.4 114.92 101.9 119.64 94.5898 122.83C94.0498 123.07 93.4998 123.29 92.9498 123.51C91.3198 124.16 89.6599 124.73 87.9599 125.23C86.7499 125.58 85.5298 125.89 84.2898 126.16C80.4598 126.99 76.4799 127.43 72.3998 127.43C56.6398 127.43 42.4199 120.87 32.2999 110.33C31.2699 109.25 30.2798 108.14 29.3398 106.98C38.4698 110.41 51.7198 111.1 70.9298 106.35C87.8098 102.17 102.54 103.31 115.13 107.38Z" fill="url(#paint11_linear_291_480)"/>
<path d="M127.95 71.8701C127.95 73.5101 127.88 75.1301 127.74 76.7401C127.58 64.2101 123.25 49.2201 108.04 36.1701C78.8402 11.1101 49.2202 22.1001 41.7002 25.5501C44.1802 23.9001 46.8002 22.4501 49.5402 21.2101C54.9802 18.7501 60.8802 17.1401 67.0802 16.5601C68.8302 16.3901 70.6002 16.3101 72.3902 16.3101C77.7302 16.3101 82.9002 17.0701 87.7902 18.4701C89.8702 19.0701 91.9002 19.7801 93.8702 20.6101C94.6102 20.9201 95.3402 21.2401 96.0602 21.5801C99.0602 22.9901 101.91 24.6701 104.59 26.5701C107.49 28.6401 110.18 30.9701 112.63 33.5401C117.33 38.4801 121.13 44.2701 123.77 50.6701C124.1 51.4701 124.42 52.2901 124.71 53.1101C125.65 55.7301 126.4 58.4401 126.94 61.2301C127.6 64.6801 127.95 68.2401 127.95 71.8701Z" fill="url(#paint12_linear_291_480)"/>
<defs>
<radialGradient id="paint0_radial_291_480" cx="0" cy="0" r="1" gradientUnits="userSpaceOnUse" gradientTransform="translate(72.3811 71.8648) scale(66.5513 66.5513)">
<stop stop-color="#FFB16C"/>
<stop offset="1" stop-color="#FFA360" stop-opacity="0"/>
</radialGradient>
<radialGradient id="paint1_radial_291_480" cx="0" cy="0" r="1" gradientUnits="userSpaceOnUse" gradientTransform="translate(63.5686 40.494) scale(91.0224 91.0224)">
<stop stop-color="#FFA360"/>
<stop offset="1" stop-color="#F22749"/>
</radialGradient>
<linearGradient id="paint2_linear_291_480" x1="62.6378" y1="3.92823" x2="84.7507" y2="157.929" gradientUnits="userSpaceOnUse">
<stop stop-color="#FFBB71"/>
<stop offset="1" stop-color="#FFBB71" stop-opacity="0"/>
</linearGradient>
<linearGradient id="paint3_linear_291_480" x1="64.4854" y1="3.663" x2="86.5982" y2="157.663" gradientUnits="userSpaceOnUse">
<stop stop-color="#FFBB71"/>
<stop offset="1" stop-color="#FFBB71" stop-opacity="0"/>
</linearGradient>
<linearGradient id="paint4_linear_291_480" x1="64.9291" y1="3.59894" x2="87.0419" y2="157.6" gradientUnits="userSpaceOnUse">
<stop stop-color="#FFBB71"/>
<stop offset="1" stop-color="#FFBB71" stop-opacity="0"/>
</linearGradient>
<linearGradient id="paint5_linear_291_480" x1="65.7956" y1="3.47426" x2="87.9086" y2="157.476" gradientUnits="userSpaceOnUse">
<stop stop-color="#FFBB71"/>
<stop offset="1" stop-color="#FFBB71" stop-opacity="0"/>
</linearGradient>
<linearGradient id="paint6_linear_291_480" x1="75.2287" y1="2.11986" x2="97.3417" y2="156.122" gradientUnits="userSpaceOnUse">
<stop stop-color="#FFBB71"/>
<stop offset="1" stop-color="#FFBB71" stop-opacity="0"/>
</linearGradient>
<linearGradient id="paint7_linear_291_480" x1="58.8107" y1="4.47764" x2="80.9235" y2="158.479" gradientUnits="userSpaceOnUse">
<stop stop-color="#FFBB71"/>
<stop offset="1" stop-color="#FFBB71" stop-opacity="0"/>
</linearGradient>
<linearGradient id="paint8_linear_291_480" x1="42.7581" y1="6.78228" x2="64.8711" y2="160.784" gradientUnits="userSpaceOnUse">
<stop stop-color="#FFBB71"/>
<stop offset="1" stop-color="#FFBB71" stop-opacity="0"/>
</linearGradient>
<linearGradient id="paint9_linear_291_480" x1="76.9012" y1="1.88035" x2="99.0141" y2="155.881" gradientUnits="userSpaceOnUse">
<stop stop-color="#FFBB71"/>
<stop offset="1" stop-color="#FFBB71" stop-opacity="0"/>
</linearGradient>
<linearGradient id="paint10_linear_291_480" x1="64.5866" y1="126.412" x2="75.5476" y2="49.6852" gradientUnits="userSpaceOnUse">
<stop stop-color="#D8274D"/>
<stop offset="1" stop-color="#F22749" stop-opacity="0"/>
</linearGradient>
<linearGradient id="paint11_linear_291_480" x1="74.3192" y1="125.984" x2="70.1188" y2="88.1804" gradientUnits="userSpaceOnUse">
<stop stop-color="#A9273E"/>
<stop offset="1" stop-color="#B62738" stop-opacity="0"/>
</linearGradient>
<linearGradient id="paint12_linear_291_480" x1="124.058" y1="4.35246" x2="82.0536" y2="54.3155" gradientUnits="userSpaceOnUse">
<stop stop-color="#FFECB8"/>
<stop offset="1" stop-color="#FFD371" stop-opacity="0.2"/>
</linearGradient>
</defs>
</svg>
