<svg width="119" height="119" viewBox="0 0 119 119" fill="none" xmlns="http://www.w3.org/2000/svg">
<path d="M54 1.27021C8.33997 5.60021 -16.23 59.9502 14.01 97.0702C27.98 114.29 51.32 122.81 74.33 116.88C86.66 113.7 97.31 106.66 104.9 97.4902C138.05 57.6402 106.83 -3.76979 54 1.27021Z" fill="url(#paint0_radial_291_495)"/>
<path d="M105.14 59.76C105.14 62.42 104.91 65.03 104.47 67.56C104.23 68.92 103.94 70.26 103.59 71.58C101.65 78.82 97.9698 85.34 93.0298 90.68C91.2398 92.62 89.2799 94.4 87.1699 96C85.2299 97.48 83.1598 98.81 80.9898 99.97C78.0498 101.54 74.9199 102.79 71.6399 103.69C67.8099 104.74 63.7798 105.29 59.6198 105.29C57.7098 105.29 55.8299 105.17 53.9899 104.94C38.5699 103.04 25.5298 93.42 18.8698 80.07C16.2698 74.87 14.6399 69.11 14.2099 63.02C14.1299 61.94 14.0898 60.85 14.0898 59.76C14.0898 52.89 15.6098 46.38 18.3298 40.54C20.7598 35.32 24.1598 30.64 28.2798 26.73C32.0898 23.11 36.5298 20.14 41.4198 18.01C46.9898 15.58 53.1498 14.23 59.6098 14.23C79.2398 14.23 95.9698 26.65 102.36 44.07C103.95 48.41 104.9 53.05 105.1 57.9C105.13 58.51 105.14 59.13 105.14 59.76Z" fill="url(#paint1_radial_291_495)"/>
<path d="M18.8602 80.0701C18.5502 79.4501 18.2502 78.8101 17.9702 78.1701C15.9002 73.5001 14.6002 68.4301 14.2102 63.1001C14.2102 63.0701 14.2102 63.0501 14.2002 63.0201C15.1202 62.9001 16.3802 63.3201 17.3002 65.9101C18.4902 69.2801 24.0302 77.4901 18.8602 80.0701Z" fill="#F79C41"/>
<path d="M54.6203 72.3301C54.5603 72.7001 54.4303 73.0501 54.2403 73.3701C52.7903 75.9701 47.7403 77.25 42.1103 76.28C37.2103 75.43 33.3003 73.11 32.0403 70.59C31.6703 69.85 31.5303 69.1 31.6603 68.35C32.2303 65.07 37.7403 64.28 44.0803 65.39C50.4203 66.48 55.1903 69.0501 54.6203 72.3301Z" fill="#F79C41"/>
<path d="M41.13 50.6503L41.12 50.6603C39.86 52.5603 35.93 50.8203 31.36 47.8303C27.63 45.3903 24.97 42.9603 24.79 41.1103C24.75 40.6903 24.84 40.2903 25.07 39.9303C26.33 38.0103 31.33 37.8803 35.91 40.8803C40.49 43.8803 42.39 48.7303 41.13 50.6503Z" fill="#F79C41"/>
<path d="M91.5702 78.6901C87.8802 81.7701 83.4602 82.5601 81.7102 80.4501C81.6202 80.3401 81.5402 80.2301 81.4702 80.1101C80.1302 77.9201 81.7302 73.9901 85.2302 71.0801C88.7902 68.1101 93.0202 67.2701 94.8902 69.1001C94.9602 69.1701 95.0302 69.2401 95.0902 69.3101C96.8402 71.4201 95.2702 75.6201 91.5702 78.6901Z" fill="#F79C41"/>
<path d="M64.9502 53.44C61.2202 56.39 57.4302 58.02 55.2602 55.28C55.0502 55.02 54.8802 54.74 54.7302 54.44C53.3502 51.66 54.7102 47.63 58.0902 44.96C61.8202 42.01 66.9102 40.62 70.3802 45.01C70.4002 45.04 70.4302 45.07 70.4402 45.1C72.4802 47.81 68.6502 50.52 64.9502 53.44Z" fill="#F79C41"/>
<path d="M50.0503 94.6401C49.5103 95.1601 48.4403 95.4501 46.7603 95.3701C40.6003 95.1001 33.9103 87.6001 35.7803 85.1901C35.8103 85.1501 35.8403 85.1201 35.8703 85.0901C37.8103 82.9001 42.6703 86.8401 45.1503 88.1401C49.2403 90.2801 51.4803 93.2701 50.0503 94.6401Z" fill="#F79C41"/>
<path d="M74.2104 89.1102C74.2204 90.5302 72.2904 92.0302 69.2504 92.1602C63.6904 92.4002 60.5204 91.3302 59.7704 89.3502C59.6904 89.1402 59.6404 88.9202 59.6104 88.6802C59.3404 86.2702 64.4304 86.6802 67.1104 86.5402C72.1404 86.2702 74.2004 87.6502 74.2104 89.1102Z" fill="#F79C41"/>
<path d="M91.0601 57.1602C90.4501 58.0702 89.2701 58.6902 87.7401 58.6902C82.9201 58.6902 76.4901 55.2102 77.3001 51.9902C77.3901 51.6202 77.5301 51.3002 77.6901 51.0402C78.9301 49.0402 82.0601 50.0102 85.0701 50.6502C91.0901 51.9302 92.3801 55.2102 91.0601 57.1602Z" fill="#F79C41"/>
<path d="M75.4103 33.5102C75.3503 33.3702 75.3203 33.2102 75.3003 33.0402C75.1803 31.6702 76.5303 29.6702 79.1603 28.9502C80.8703 28.4802 83.1803 28.5402 84.6103 29.4202C85.2403 29.8102 85.6903 30.3502 85.8603 31.0902C86.2603 32.9302 76.2603 35.6402 75.4103 33.5102Z" fill="#F79C41"/>
<path d="M47.93 29.25C47.59 29.45 47.19 29.39 46.76 28.96C43.81 26.01 43.55 21.19 45.15 20.39C45.78 20.07 46.33 19.97 46.8 20.02C50 20.38 49.65 28.21 47.93 29.25Z" fill="#F79C41"/>
<path d="M98.4401 46.0999C98.2301 46.1999 97.9801 46.2199 97.7101 46.1499C96.5901 45.8599 95.1301 44.1399 94.6901 41.5499C94.4401 40.0299 95.2001 38.5699 96.1901 38.1099C97.2901 37.5899 98.6801 38.3099 99.2401 41.5499C99.5701 43.3899 99.5201 45.5599 98.4401 46.0999Z" fill="#F79C41"/>
<path d="M93.03 90.6801C89.58 94.4102 85.51 97.5601 80.99 99.9601C80.48 99.7101 80.02 99.3401 79.84 98.8101C79.68 98.3401 79.75 97.7402 80.24 96.9802C82.11 94.0302 83.99 89.4801 88.27 89.2101C89.52 89.1301 90.51 89.2801 91.3 89.5601C92.06 89.8401 92.62 90.2401 93.03 90.6801Z" fill="#F79C41"/>
<path d="M71.63 103.68C67.8 104.73 63.77 105.28 59.61 105.28C57.7 105.28 55.82 105.16 53.98 104.93C53.98 104.39 54.08 103.81 54.41 103.32C54.73 102.85 55.26 102.47 56.13 102.33C59.34 101.79 60.95 99.6502 65.5 99.9202C67.86 100.06 69.51 101.21 70.54 102.28C71.05 102.82 71.4 103.32 71.63 103.68Z" fill="#F79C41"/>
<path d="M65.8104 20.7201C65.5804 21.8601 63.6504 22.2701 62.7204 21.8401C62.5204 21.7501 62.3704 21.6201 62.2904 21.4601C61.7504 20.3901 65.2804 18.3901 65.7704 20.1201C65.8304 20.3401 65.8404 20.5401 65.8104 20.7201Z" fill="#F79C41"/>
<path d="M51.8502 80.91C50.6502 80.31 49.7102 79.84 49.9802 82.25C50.2502 84.66 52.1202 85.2 53.7302 85.2C55.3302 85.2 52.9202 81.45 51.8502 80.91Z" fill="#EF903A"/>
<path d="M29.6201 79.3099C28.5501 79.0399 28.5501 80.9199 27.7501 82.7899C26.9501 84.6599 28.0201 85.9999 29.6201 85.9999C31.2301 85.9999 31.7601 79.8399 29.6201 79.3099Z" fill="#EF903A"/>
<path d="M24.8001 55.2C23.7701 54.73 22.66 54.13 22.39 55.2C22.12 56.27 24.53 59.22 25.87 59.22C27.21 59.22 27.7401 56.54 24.8001 55.2Z" fill="#EF903A"/>
<path d="M105.14 59.7598C105.14 62.4198 104.91 65.0298 104.47 67.5598C104.08 67.4098 103.68 67.1398 103.26 66.7198C100.58 64.0398 102.61 60.2398 103.26 58.9498C103.98 57.5098 104.7 57.6398 105.1 57.8898C105.13 58.5098 105.14 59.1298 105.14 59.7598Z" fill="#EF903A"/>
<path d="M77.5602 62.6998C76.0102 62.5098 75.1502 63.7698 77.5602 64.8398C79.9702 65.9198 79.7002 62.9698 77.5602 62.6998Z" fill="#EF903A"/>
<path d="M19.9803 50.6497C19.2603 51.0097 19.1803 52.5197 21.0503 52.2597C22.9203 51.9897 21.5803 49.8497 19.9803 50.6497Z" fill="#EF903A"/>
<path d="M58.0104 31.91C57.2104 32.18 56.1404 32.98 58.0104 33.25C59.8804 33.51 58.8104 31.64 58.0104 31.91Z" fill="#EF903A"/>
<path d="M62.5603 31.9099C61.5803 31.3399 61.4903 34.0499 62.2903 35.1199C63.0903 36.1899 65.7703 33.7799 62.5603 31.9099Z" fill="#EF903A"/>
<path d="M71.1302 95.3799C70.5502 95.5099 70.3302 96.4499 71.9302 96.9899C73.5402 97.5199 73.5402 94.8399 71.1302 95.3799Z" fill="#EF903A"/>
<path d="M47.8303 99.9299C47.0303 100.2 46.2203 100.73 47.8303 101.27C49.4403 101.8 48.6303 99.6599 47.8303 99.9299Z" fill="#EF903A"/>
<path d="M49.1703 60.5599C47.8103 60.6299 50.7803 62.4299 51.5803 62.6999C52.3803 62.9699 54.7903 60.2899 49.1703 60.5599Z" fill="#EF903A"/>
<path d="M93.0905 53.6C92.4205 54.12 93.6305 57.08 94.7005 56.81C95.7705 56.54 95.5005 51.72 93.0905 53.6Z" fill="#EF903A"/>
<path d="M71.55 72.3701C71.43 72.8301 71.28 73.2801 71.13 73.6801C70.35 75.7701 65.74 76.5901 64.52 75.6301C64.49 75.6101 64.46 75.5801 64.43 75.5501C63.36 74.4801 64.4 71.7901 64.97 70.4601C65.77 68.5901 69.79 67.2501 71.13 67.7801C72.21 68.2301 72.07 70.4201 71.55 72.3701Z" fill="#F79C41"/>
<path d="M24.79 41.12C24.75 40.7 24.84 40.3 25.07 39.94C26.33 38.02 31.33 37.89 35.91 40.89C40.49 43.89 42.39 48.74 41.13 50.66L41.12 50.67C41.19 49.5 40.7 47.86 38.99 45.57C34.53 39.62 26.4 37.57 24.79 41.12Z" fill="#E27C37"/>
<path d="M54.6203 72.33C54.5603 72.7 54.4303 73.05 54.2403 73.37C54.1303 72.91 53.1403 69.3 48.6303 67.79C43.9503 66.23 37.6503 64.84 33.9003 67.79C32.7003 68.73 32.1903 69.7 32.0403 70.58C31.6703 69.84 31.5303 69.09 31.6603 68.34C32.2303 65.06 37.7403 64.27 44.0803 65.38C50.4203 66.48 55.1903 69.05 54.6203 72.33Z" fill="#E27C37"/>
<path d="M62.0202 44.22C57.0402 45.94 54.9402 50.82 54.7302 54.44C53.3502 51.66 54.7102 47.63 58.0902 44.96C61.8202 42.01 66.9102 40.62 70.3802 45.01C70.4002 45.04 70.4302 45.07 70.4402 45.1C68.9402 43.94 66.2102 42.78 62.0202 44.22Z" fill="#E27C37"/>
<path d="M71.5502 72.3701C71.5002 70.4301 71.0203 68.2401 68.9903 68.8601C66.9103 69.5001 64.5503 73.2701 64.5303 75.6301C64.5003 75.6101 64.4703 75.5801 64.4403 75.5501C63.3703 74.4801 64.4103 71.7901 64.9803 70.4601C65.7803 68.5901 69.8003 67.2501 71.1403 67.7801C72.2103 68.2301 72.0702 70.4201 71.5502 72.3701Z" fill="#E27C37"/>
<path d="M91.0602 57.1602C91.6702 53.6302 86.0102 52.4902 83.1802 51.4602C80.3802 50.4402 78.4602 50.8002 77.6802 51.0402C78.9202 49.0402 82.0502 50.0102 85.0602 50.6502C91.0902 51.9302 92.3802 55.2102 91.0602 57.1602Z" fill="#E27C37"/>
<path d="M75.4103 33.5102C75.3503 33.3702 75.3203 33.2102 75.3003 33.0402C76.9903 34.1602 81.3203 33.2502 83.7103 32.1702C85.4203 31.3902 85.1403 30.2502 84.6103 29.4302C85.2403 29.8202 85.6903 30.3602 85.8603 31.1002C86.2603 32.9302 76.2603 35.6402 75.4103 33.5102Z" fill="#E27C37"/>
<path d="M47.93 29.25C47.59 29.45 47.19 29.39 46.76 28.96C43.81 26.01 43.55 21.19 45.15 20.39C45.78 20.07 46.33 19.97 46.8 20.02C46.15 20.14 45.15 20.71 45.15 23.07C45.15 25.79 46.46 28.02 47.93 29.25Z" fill="#E27C37"/>
<path d="M65.8104 20.7201C65.7204 20.2601 65.3604 19.8201 64.1704 20.1201C63.2004 20.3601 62.8304 21.1001 62.7204 21.8401C62.5204 21.7501 62.3704 21.6201 62.2904 21.4601C61.7504 20.3901 65.2804 18.3901 65.7704 20.1201C65.8304 20.3401 65.8404 20.5401 65.8104 20.7201Z" fill="#E27C37"/>
<path d="M50.0501 94.6401C49.8201 93.2001 48.5001 91.8001 46.2201 90.5501C43.2701 88.9401 41.1301 87.3401 39.2601 86.0001C38.2801 85.3001 36.9301 85.1101 35.8701 85.0901C37.8101 82.9001 42.6701 86.8401 45.1501 88.1401C49.2401 90.2801 51.4801 93.2701 50.0501 94.6401Z" fill="#E27C37"/>
<path d="M74.2104 89.11C73.7804 88.04 72.4804 87.6 70.3204 87.6H62.8204C59.9504 87.6 59.7704 89.26 59.7704 89.34C59.6904 89.13 59.6404 88.91 59.6104 88.67C59.3404 86.26 64.4304 86.67 67.1104 86.53C72.1404 86.27 74.2004 87.65 74.2104 89.11Z" fill="#E27C37"/>
<path d="M70.54 102.29C71.05 102.81 71.4 103.32 71.63 103.68C67.8 104.73 63.77 105.28 59.61 105.28C57.7 105.28 55.82 105.16 53.98 104.93C53.98 104.39 54.08 103.81 54.41 103.32C63.31 105.42 68.44 103.47 70.54 102.29Z" fill="#E27C37"/>
<path d="M93.0303 90.6801C89.5803 94.4101 85.5103 97.5601 80.9903 99.9601C80.4803 99.7101 80.0203 99.3401 79.8403 98.8101C87.3103 96.0101 90.5403 90.9401 91.3003 89.5701C92.0603 89.8401 92.6203 90.2401 93.0303 90.6801Z" fill="#E27C37"/>
<path d="M94.8902 69.1001C94.2902 68.8901 90.0202 67.7001 85.0502 73.4101C82.5402 76.3001 81.6702 78.5401 81.4702 80.1101C80.1302 77.9201 81.7302 73.9901 85.2302 71.0801C88.7902 68.1201 93.0202 67.2701 94.8902 69.1001Z" fill="#E27C37"/>
<path d="M97.7101 46.1401C96.5901 45.8501 95.1301 44.1301 94.6901 41.5401C94.4401 40.0201 95.2001 38.5601 96.1901 38.1001C95.7601 38.6701 95.3601 39.5401 95.4901 40.7401C95.7201 42.6801 96.4501 44.6201 97.7101 46.1401Z" fill="#E27C37"/>
<path d="M18.8602 80.0701C18.5502 79.4501 18.2502 78.8101 17.9702 78.1701C19.2502 77.0101 20.5102 74.8901 18.9102 71.5401C16.9302 67.3901 15.9702 63.8201 14.2102 63.1001C14.2102 63.0701 14.2102 63.0501 14.2002 63.0201C15.1202 62.9001 16.3802 63.3201 17.3002 65.9101C18.4902 69.2801 24.0302 77.4901 18.8602 80.0701Z" fill="#E27C37"/>
<path opacity="0.35" d="M105.14 59.7598C105.14 62.4198 104.91 65.0298 104.47 67.5598C102.94 76.3998 98.8601 84.3698 93.0201 90.6798C89.5701 94.4098 85.5001 97.5598 80.9801 99.9598C78.0401 101.53 74.9101 102.78 71.6301 103.68C67.8001 104.73 63.7701 105.28 59.6101 105.28C57.7001 105.28 55.8201 105.16 53.9801 104.93C38.5601 103.03 25.5201 93.4098 18.8601 80.0598C16.2601 74.8598 14.6301 69.0998 14.2001 63.0098C14.1201 61.9298 14.0801 60.8398 14.0801 59.7498C14.0801 52.8798 15.6001 46.3698 18.3201 40.5298C18.7601 79.9598 100.18 89.8698 102.36 44.0498C103.95 48.3898 104.9 53.0298 105.1 57.8798C105.13 58.5098 105.14 59.1298 105.14 59.7598Z" fill="url(#paint2_linear_291_495)"/>
<path opacity="0.45" d="M87.1699 96C85.2299 97.48 83.1598 98.81 80.9898 99.97C78.0498 101.54 74.9199 102.79 71.6399 103.69C67.8099 104.74 63.7798 105.29 59.6198 105.29C57.7098 105.29 55.8299 105.17 53.9899 104.94C38.5699 103.04 25.5298 93.42 18.8698 80.07C16.2698 74.87 14.6399 69.11 14.2099 63.02C14.1299 61.94 14.0898 60.85 14.0898 59.76C14.0898 52.89 15.6098 46.38 18.3298 40.54C20.7598 35.32 24.1598 30.64 28.2798 26.73C15.5798 87.3 62.2899 95.69 87.1699 96Z" fill="url(#paint3_linear_291_495)"/>
<path d="M105.14 59.76C105.14 62.42 104.91 65.03 104.47 67.56C104.23 68.92 103.94 70.26 103.59 71.58C102.01 34.96 77.2099 14.14 41.4199 18.01C46.9899 15.58 53.1499 14.23 59.6099 14.23C79.2399 14.23 95.9699 26.65 102.36 44.07C103.95 48.41 104.9 53.05 105.1 57.9C105.13 58.51 105.14 59.13 105.14 59.76Z" fill="url(#paint4_linear_291_495)"/>
<defs>
<radialGradient id="paint0_radial_291_495" cx="0" cy="0" r="1" gradientUnits="userSpaceOnUse" gradientTransform="translate(59.6147 59.8652) scale(54.5324)">
<stop stop-color="#FFD86C"/>
<stop offset="1" stop-color="#FFD160" stop-opacity="0"/>
</radialGradient>
<radialGradient id="paint1_radial_291_495" cx="0" cy="0" r="1" gradientUnits="userSpaceOnUse" gradientTransform="translate(57.6042 35.6557) scale(69.5207 69.5207)">
<stop stop-color="#FFE46A"/>
<stop offset="1" stop-color="#FFA44A"/>
</radialGradient>
<linearGradient id="paint2_linear_291_495" x1="20.7228" y1="83.8237" x2="101.24" y2="46.1536" gradientUnits="userSpaceOnUse">
<stop stop-color="#E27437"/>
<stop offset="1" stop-color="#E27437" stop-opacity="0.2"/>
</linearGradient>
<linearGradient id="paint3_linear_291_495" x1="50.8155" y1="125.61" x2="50.3713" y2="12.7784" gradientUnits="userSpaceOnUse">
<stop stop-color="#CC622E"/>
<stop offset="1" stop-color="#CC622E" stop-opacity="0.2"/>
</linearGradient>
<linearGradient id="paint4_linear_291_495" x1="100.109" y1="14.2099" x2="72.41" y2="44.8998" gradientUnits="userSpaceOnUse">
<stop stop-color="#FFF2B6"/>
<stop offset="1" stop-color="#FFF49A" stop-opacity="0.2"/>
</linearGradient>
</defs>
</svg>
