<svg width="119" height="118" viewBox="0 0 119 118" fill="none" xmlns="http://www.w3.org/2000/svg">
<path d="M53.6499 0.36005C7.98986 4.69005 -16.5801 59.0401 13.6599 96.1601C27.6299 113.38 50.9699 121.9 73.9799 115.97C86.3099 112.79 96.9599 105.75 104.55 96.5801C137.7 56.7301 106.47 -4.67995 53.6499 0.36005Z" fill="url(#paint0_radial_291_547)"/>
<path d="M104.79 58.9502C104.79 59.4002 104.78 59.8602 104.77 60.3102C104.68 63.1702 104.34 65.9702 103.75 68.6702C103.13 71.5202 102.24 74.2802 101.11 76.9102C100.38 78.6302 99.54 80.3002 98.6 81.9002C96.44 85.5902 93.78 88.9502 90.71 91.8902C87.27 95.1702 83.32 97.9202 78.99 100.01C73.02 102.88 66.34 104.49 59.27 104.49C39.63 104.49 22.9 92.0602 16.52 74.6402C16.25 73.9102 16 73.1602 15.77 72.4102C14.51 68.3202 13.8 63.9802 13.75 59.4802C13.75 59.3102 13.75 59.1302 13.75 58.9602C13.75 56.3202 13.98 53.7402 14.41 51.2302C14.61 50.0502 14.86 48.8902 15.15 47.7402C15.59 46.0002 16.13 44.3102 16.76 42.6602C18.77 37.4202 21.73 32.6402 25.42 28.5402C27.46 26.2702 29.73 24.2002 32.19 22.3802C34.79 20.4502 37.61 18.7902 40.59 17.4502C44.49 15.6902 48.69 14.4702 53.08 13.8702C55.11 13.5902 57.18 13.4502 59.28 13.4502C69.98 13.4502 79.82 17.1402 87.59 23.3202C91.33 26.2902 94.59 29.8402 97.24 33.8402C99.71 37.5602 101.65 41.6702 102.94 46.0502C104.13 50.0602 104.77 54.2902 104.8 58.6702C104.79 58.7402 104.79 58.8502 104.79 58.9502Z" fill="url(#paint1_radial_291_547)"/>
<path d="M68.63 84.3901C67.02 87.8701 62.2 87.8701 57.11 92.4201C52.02 96.9701 44.79 93.4901 43.45 90.8101C42.11 88.1301 49.88 85.9901 52.02 84.6501C54.16 83.3101 55.77 76.0801 45.06 78.4901C34.35 80.9001 31.94 81.1701 24.97 76.3501C21.34 73.8401 18.44 73.9501 16.5 74.6201C14.76 69.8901 13.79 64.7801 13.73 59.4601C16.55 58.8301 20.53 58.8301 25.78 60.8201C37.83 65.3701 39.71 60.8201 52.03 60.8201C64.35 60.8201 66.22 66.9801 65.96 74.2101C65.69 81.4501 70.24 80.9101 68.63 84.3901Z" fill="url(#paint2_linear_291_547)"/>
<path d="M104.79 58.6401C98.6801 57.1801 91.9901 61.3801 92.2101 69.6601C92.4801 79.8401 88.1901 78.7701 86.0501 84.6601C84.9201 87.7601 87.7201 90.1901 90.7101 91.8801C87.2701 95.1601 83.3201 97.9101 78.9901 100C73.3001 95.2001 74.8001 89.1401 80.1601 81.4501C86.3201 72.6101 79.3601 68.8601 83.6401 56.0101C86.6401 47.0101 97.0001 45.8901 102.93 46.0201C104.11 50.0201 104.76 54.2601 104.79 58.6401Z" fill="url(#paint3_linear_291_547)"/>
<path d="M103.75 68.6702C102.72 73.3902 100.96 77.8402 98.5899 81.8902C96.9299 74.2702 100.96 70.3902 103.75 68.6702Z" fill="url(#paint4_linear_291_547)"/>
<path d="M97.2198 33.8101C91.3398 36.7501 84.0198 37.4101 78.2698 33.5101C70.7698 28.4201 68.3598 24.4001 54.6998 24.1401C46.7798 23.9801 42.6398 20.4101 40.5698 17.4301C44.4698 15.6701 48.6698 14.4501 53.0598 13.8501C54.3498 16.5501 56.8998 19.2201 61.9398 18.5201C71.5798 17.1801 71.5798 17.1801 79.0798 22.5401C81.8698 24.5401 84.8898 24.3401 87.5698 23.3101C91.3098 26.2701 94.5698 29.8201 97.2198 33.8101Z" fill="url(#paint5_linear_291_547)"/>
<path d="M31.6801 31.9001C32.4801 42.0801 28.4701 45.0201 20.4301 47.9701C18.0701 48.8401 16.0601 50.0001 14.3901 51.2201C14.9001 48.2601 15.6901 45.3901 16.7401 42.6501C17.5601 42.2601 18.4401 41.8901 19.3601 41.5501C24.4501 39.6801 26.0201 37.3801 25.5201 30.8401C25.4601 30.0901 25.4201 29.3201 25.4001 28.5301C27.4401 26.2601 29.7101 24.1901 32.1701 22.3701C31.6701 24.6901 31.3601 27.8501 31.6801 31.9001Z" fill="url(#paint6_linear_291_547)"/>
<path d="M53.1001 47.97C50.4101 45.28 39.1701 47.97 37.0301 43.42C34.8901 38.87 38.3701 34.05 44.5301 34.31C50.6901 34.58 56.0501 31.36 59.2601 36.18C62.4701 41 72.1101 40.2 74.2601 45.02C76.0301 49 74.0001 55.7 64.6201 54.66C57.3901 53.86 56.5801 51.45 53.1001 47.97Z" fill="url(#paint7_linear_291_547)"/>
<g opacity="0.5">
<path d="M76.6699 59.2204C76.1099 57.4104 75.0598 59.2204 71.3098 59.7604C67.5598 60.3004 68.6298 63.5104 70.7698 64.8504C72.9198 66.1804 78.0099 63.5004 76.6699 59.2204Z" fill="#146072"/>
<path d="M38.64 52.5202C39.91 49.5602 35.96 49.8402 33.28 48.7702C30.6 47.7002 29.26 49.5702 27.66 52.5202C26.05 55.4702 28.73 57.0702 32.21 55.4702C35.69 53.8602 37.84 54.4002 38.64 52.5202Z" fill="#146072"/>
<path d="M41.3199 53.0605C40.8299 52.0705 38.1099 54.4005 38.9099 54.6705C39.7099 54.9405 42.1199 54.6705 41.3199 53.0605Z" fill="#146072"/>
<path d="M84.1699 40.4702C82.3899 40.6902 81.2199 41.2702 81.4899 42.6102C81.7599 43.9502 87.3799 43.6802 88.1899 43.1502C88.9899 42.6102 86.3099 40.2002 84.1699 40.4702Z" fill="#146072"/>
<path d="M65.6898 31.1002C64.8398 29.4102 62.7399 31.6402 61.6699 31.9002C60.5999 32.1702 60.5998 34.0402 63.5398 34.5802C66.4898 35.1202 66.2198 32.1702 65.6898 31.1002Z" fill="#146072"/>
<path d="M37.0302 21.4603C35.1602 22.0203 34.0802 22.8003 35.6902 23.6003C37.3002 24.4003 38.3702 26.0103 38.9002 24.1403C39.4402 22.2603 39.7102 20.6503 37.0302 21.4603Z" fill="#146072"/>
<path d="M69.4403 65.6503C68.6403 65.5803 68.9003 67.5203 69.9803 67.7903C71.0603 68.0603 72.3803 65.9103 69.4403 65.6503Z" fill="#146072"/>
<path d="M75.33 74.4804C74.17 74.7704 72.38 76.8904 73.19 77.6904C73.99 78.4904 75.33 77.6904 76.4 77.6904C77.47 77.7004 76.4 74.2204 75.33 74.4804Z" fill="#146072"/>
<path d="M65.6901 94.5704C63.8501 95.0304 61.1401 96.1804 61.1401 97.5204C61.1401 98.8604 63.5501 98.0604 66.7601 98.8604C69.9701 99.6604 73.4601 98.0604 72.1201 94.5804C70.7801 91.0904 67.8301 94.0304 65.6901 94.5704Z" fill="#115560"/>
<path d="M33.0199 88.1402C32.0499 89.1102 30.88 90.0102 31.95 91.0902C33.02 92.1602 34.8999 90.8202 36.4999 91.0902C38.1099 91.3602 39.45 89.7502 38.64 87.6102C37.84 85.4602 34.6199 86.5302 33.0199 88.1402Z" fill="#115560"/>
<path d="M38.64 84.9304C38.22 84.5104 37.3 85.2004 38.1 85.7304C38.91 86.2704 39.98 86.2704 38.64 84.9304Z" fill="#146072"/>
<path d="M79.3501 49.8504C78.4701 49.1904 77.2101 51.1904 78.2801 51.7204C79.3501 52.2504 80.4201 50.6504 79.3501 49.8504Z" fill="#146072"/>
<path d="M49.62 27.0804C48.98 25.7904 47.48 26.8104 47.21 28.1504C46.94 29.4904 50.16 28.1504 49.62 27.0804Z" fill="#146072"/>
<path d="M51.5 26.5503C50.96 26.5503 51.5 28.4203 52.04 28.1603C52.57 27.8903 52.83 26.5503 51.5 26.5503Z" fill="#146072"/>
<path d="M49.3501 98.8503C48.8101 98.8503 49.3501 100.72 49.8901 100.46C50.4201 100.19 50.6901 98.8503 49.3501 98.8503Z" fill="#115560"/>
</g>
<path opacity="0.35" d="M101.11 76.9C100.38 78.62 99.54 80.29 98.6 81.89C96.44 85.58 93.78 88.94 90.71 91.88C87.27 95.16 83.32 97.91 78.99 100C73.02 102.87 66.34 104.48 59.27 104.48C39.63 104.48 22.9 92.05 16.52 74.63C16.25 73.9 16 73.15 15.77 72.4C14.51 68.31 13.8 63.97 13.75 59.47C13.75 59.3 13.75 59.12 13.75 58.95C13.75 56.31 13.98 53.73 14.41 51.22C14.61 50.04 14.86 48.88 15.15 47.73C21.09 62.14 34.83 84.42 63.43 86.4C65.88 86.57 68.25 86.61 70.53 86.53C83.19 86.09 93.29 82.05 101.11 76.9Z" fill="url(#paint8_linear_291_547)"/>
<path opacity="0.5" d="M104.77 60.3103C104.68 63.1703 104.34 65.9703 103.75 68.6703C103.13 71.5203 102.24 74.2803 101.11 76.9103C100.38 78.6303 99.54 80.3003 98.6 81.9003C96.44 85.5903 93.78 88.9503 90.71 91.8903C87.27 95.1703 83.32 97.9203 78.99 100.01C73.02 102.88 66.34 104.49 59.27 104.49C39.63 104.49 22.9 92.0603 16.52 74.6403C16.25 73.9103 16 73.1603 15.77 72.4103C36.9 90.0003 55.51 91.5203 70.53 86.5403C86.35 81.2803 98.19 68.8003 104.77 60.3103Z" fill="url(#paint9_linear_291_547)"/>
<defs>
<radialGradient id="paint0_radial_291_547" cx="0" cy="0" r="1" gradientUnits="userSpaceOnUse" gradientTransform="translate(59.2613 58.951) scale(54.5324 54.5324)">
<stop stop-color="#EAEF6A"/>
<stop offset="1" stop-color="#DDF160" stop-opacity="0"/>
</radialGradient>
<radialGradient id="paint1_radial_291_547" cx="0" cy="0" r="1" gradientUnits="userSpaceOnUse" gradientTransform="translate(56.8513 32.4395) scale(63.5208)">
<stop stop-color="#83EF65"/>
<stop offset="1" stop-color="#0C7293"/>
</radialGradient>
<linearGradient id="paint2_linear_291_547" x1="37.0723" y1="5.58104" x2="44.3373" y2="117.735" gradientUnits="userSpaceOnUse">
<stop stop-color="#DBED4F"/>
<stop offset="1" stop-color="#B9ED29" stop-opacity="0"/>
</linearGradient>
<linearGradient id="paint3_linear_291_547" x1="85.3535" y1="2.4537" x2="92.6185" y2="114.607" gradientUnits="userSpaceOnUse">
<stop stop-color="#DBED4F"/>
<stop offset="1" stop-color="#B9ED29" stop-opacity="0"/>
</linearGradient>
<linearGradient id="paint4_linear_291_547" x1="96.31" y1="1.74416" x2="103.575" y2="113.898" gradientUnits="userSpaceOnUse">
<stop stop-color="#DBED4F"/>
<stop offset="1" stop-color="#B9ED29" stop-opacity="0"/>
</linearGradient>
<linearGradient id="paint5_linear_291_547" x1="67.4727" y1="3.612" x2="74.7377" y2="115.766" gradientUnits="userSpaceOnUse">
<stop stop-color="#DBED4F"/>
<stop offset="1" stop-color="#B9ED29" stop-opacity="0"/>
</linearGradient>
<linearGradient id="paint6_linear_291_547" x1="21.325" y1="6.60142" x2="28.59" y2="118.755" gradientUnits="userSpaceOnUse">
<stop stop-color="#DBED4F"/>
<stop offset="1" stop-color="#B9ED29" stop-opacity="0"/>
</linearGradient>
<linearGradient id="paint7_linear_291_547" x1="53.0479" y1="4.54625" x2="60.3129" y2="116.7" gradientUnits="userSpaceOnUse">
<stop stop-color="#DBED4F"/>
<stop offset="1" stop-color="#B9ED29" stop-opacity="0"/>
</linearGradient>
<linearGradient id="paint8_linear_291_547" x1="32.4971" y1="101.052" x2="59.3254" y2="61.2373" gradientUnits="userSpaceOnUse">
<stop stop-color="#CC622E"/>
<stop offset="1" stop-color="#CC622E" stop-opacity="0.2"/>
</linearGradient>
<linearGradient id="paint9_linear_291_547" x1="80.081" y1="112.969" x2="59.3774" y2="64.6001" gradientUnits="userSpaceOnUse">
<stop stop-color="#11727F"/>
<stop offset="1" stop-color="#11727F" stop-opacity="0.2"/>
</linearGradient>
</defs>
</svg>
