<svg width="148" height="148" viewBox="0 0 148 148" fill="none" xmlns="http://www.w3.org/2000/svg">
<path d="M67.1601 1.01004C10.0701 6.42004 -20.6599 74.38 17.1601 120.79C34.6301 142.32 63.8101 152.97 92.5801 145.56C107.99 141.59 121.31 132.78 130.81 121.31C172.26 71.49 133.21 -5.28996 67.1601 1.01004Z" fill="url(#paint0_radial_291_622)"/>
<path d="M41.6202 118.62C10.8402 96.1501 11.8002 49.6201 43.8202 28.5101C65.5502 14.1301 95.0002 16.9901 113.56 36.2901C122.1 45.1601 127.64 56.8701 128.7 69.7901C132.63 116.71 79.3402 146.27 41.6202 118.62Z" fill="url(#paint1_radial_291_622)"/>
<path d="M126.43 58.03C117.72 58 101.15 56.48 81.8603 47.37C60.5403 37.3 42.8903 35.62 35.3403 35.42C37.9303 32.85 40.7703 30.53 43.8303 28.52C48.8503 29.24 58.3203 31.33 75.6003 37.03C96.0803 43.79 107.86 39.85 113.58 36.3C119.41 42.36 123.87 49.77 126.43 58.03Z" fill="url(#paint2_linear_291_622)"/>
<path d="M108.8 31.89C104.02 33.79 94.6201 35.43 78.4101 30.75C64.2201 26.65 55.8101 25.06 51.1001 24.47C53.9201 23.17 56.8601 22.11 59.9101 21.3C64.0501 22.41 69.5501 24.1 76.8401 26.68C91.3101 31.8 100.57 31.11 105.81 29.61C106.84 30.33 107.84 31.09 108.8 31.89Z" fill="url(#paint3_linear_291_622)"/>
<path d="M100.52 26.2701C95.0402 26.8101 84.5202 26.7101 77.4702 19.5701C85.7902 20.0801 93.6102 22.4501 100.52 26.2701Z" fill="url(#paint4_linear_291_622)"/>
<path d="M128.9 74.3301C128.9 75.0601 128.88 75.7901 128.86 76.5201C121.53 77.3601 106.47 76.5501 82.1801 63.9801C51.4601 48.0901 35.9501 47.1901 25.6401 48.4201C26.2301 47.3201 26.8501 46.2401 27.5201 45.1901C34.3801 44.3401 49.7201 44.5801 75.2901 55.8201C106.89 69.7101 116.96 72.7201 128.72 69.7701C128.83 71.2801 128.9 72.8001 128.9 74.3301Z" fill="url(#paint5_linear_291_622)"/>
<path d="M64.6102 64.3001C45.3802 55.4301 27.7002 58.3701 21.0202 60.0401C19.9602 63.9601 19.3302 68.0501 19.1802 72.2701C56.1402 65.5801 83.2102 86.2901 74.0202 87.8201C64.6102 89.3901 60.5402 90.6401 45.8002 95.3501C35.0402 98.7901 26.4402 95.5301 22.6002 93.5201C24.0802 97.5001 26.0102 101.26 28.3402 104.74C47.4202 111.87 62.6702 104.33 82.5002 98.1701C97.9102 93.3801 112.91 98.4101 121.24 102.33C124.04 97.6201 126.15 92.4501 127.45 86.9701C100.73 91.8801 87.2302 74.7301 64.6102 64.3001Z" fill="url(#paint6_linear_291_622)"/>
<path d="M53.01 86.56C47.37 86.87 44.23 88.44 35.45 89.7C31.12 90.32 25.5 89.34 20.91 88.18C20.03 84.81 19.47 81.3 19.25 77.71C45.33 73.49 58.32 86.26 53.01 86.56Z" fill="url(#paint7_linear_291_622)"/>
<path d="M113.55 112.39C112.27 113.72 110.93 114.98 109.52 116.17C102.83 114.08 95.2503 112.77 87.1803 113.21C68.5703 114.23 57.4304 120.64 41.6104 118.62C40.6704 117.93 39.7504 117.22 38.8604 116.47C45.3204 117.34 56.9204 116.92 77.1404 111.33C91.3404 107.41 103.65 108.92 113.55 112.39Z" fill="url(#paint8_linear_291_622)"/>
<path d="M100.94 122.16C92.9903 126.64 83.8003 129.2 74.0203 129.2C70.5103 129.2 67.0803 128.87 63.7603 128.24C75.5403 115.19 92.7103 119.16 100.94 122.16Z" fill="url(#paint9_linear_291_622)"/>
<path opacity="0.55" d="M123.5 98.08C122.8 99.53 122.04 100.94 121.23 102.32C119.06 105.97 116.48 109.35 113.55 112.39C112.27 113.72 110.93 114.98 109.52 116.17C106.86 118.43 103.99 120.44 100.93 122.16C92.9801 126.64 83.7901 129.2 74.0101 129.2C70.5001 129.2 67.0701 128.87 63.7501 128.24C55.5901 126.7 48.0701 123.35 41.6201 118.62C40.6801 117.93 39.7601 117.22 38.8701 116.47C34.8201 113.09 31.2601 109.14 28.3301 104.73C26.0101 101.25 24.0801 97.49 22.5901 93.51C21.9401 91.77 21.3801 89.99 20.9001 88.17C20.0201 84.8 19.4601 81.29 19.2401 77.7C19.2001 77.08 19.1701 76.46 19.1601 75.84C19.1401 75.34 19.1401 74.83 19.1401 74.33C19.1401 73.64 19.1501 72.95 19.1801 72.26C19.3401 68.05 19.9701 63.95 21.0201 60.03C22.1201 55.95 23.6701 52.07 25.6301 48.42C26.2201 47.32 26.8401 46.24 27.5101 45.19C28.1501 44.18 28.8101 43.19 29.5101 42.22C37.2501 45.78 45.1901 53.38 50.9701 68.52C59.2701 90.26 74.1601 103.31 91.0301 105.84C101.46 107.42 112.65 104.97 123.5 98.08Z" fill="url(#paint10_linear_291_622)"/>
<path opacity="0.5" d="M128.73 78.6501C128.51 81.4801 128.07 84.2601 127.43 86.9601C126.51 90.8401 125.19 94.5701 123.5 98.0801C122.8 99.5301 122.04 100.94 121.23 102.32C119.06 105.97 116.48 109.35 113.55 112.39C112.27 113.72 110.93 114.98 109.52 116.17C106.86 118.43 103.99 120.44 100.93 122.16C92.9801 126.64 83.7901 129.2 74.0101 129.2C70.5001 129.2 67.0702 128.87 63.7502 128.24C55.5902 126.7 48.0701 123.35 41.6201 118.62C40.6801 117.93 39.7601 117.22 38.8701 116.47C34.8201 113.09 31.2602 109.14 28.3302 104.73C26.0102 101.25 24.0801 97.4901 22.5901 93.5101C21.9401 91.7701 21.3801 89.9901 20.9001 88.1701C20.0201 84.8001 19.4602 81.2901 19.2402 77.7001C19.2002 77.0801 19.1702 76.4601 19.1602 75.8401C24.4702 87.7001 34.0701 99.1501 51.1201 105.69C65.6901 111.27 79.2202 110.15 91.0202 105.85C107.73 99.7901 120.96 87.3901 128.73 78.6501Z" fill="url(#paint11_linear_291_622)" stroke="url(#paint12_radial_291_622)" stroke-miterlimit="10"/>
<path d="M128.74 78.5301C128.72 77.3701 128.02 50.3001 95.5 33.8001C56.82 14.1701 32.02 39.1301 31.46 39.7001C52.2 14.1901 90.71 12.5301 113.56 36.3001C124.44 47.5901 129.92 62.8601 128.74 78.5301Z" fill="url(#paint13_linear_291_622)"/>
<defs>
<radialGradient id="paint0_radial_291_622" cx="0" cy="0" r="1" gradientUnits="userSpaceOnUse" gradientTransform="translate(74.1811 74.2747) scale(64.6236)">
<stop stop-color="#77E5B5"/>
<stop offset="1" stop-color="#95F6B0" stop-opacity="0"/>
</radialGradient>
<radialGradient id="paint1_radial_291_622" cx="0" cy="0" r="1" gradientUnits="userSpaceOnUse" gradientTransform="translate(80.3068 45.8144) scale(64.8932 64.8932)">
<stop stop-color="#BEEF8F"/>
<stop offset="1" stop-color="#24C9A9"/>
</radialGradient>
<linearGradient id="paint2_linear_291_622" x1="47.679" y1="138.202" x2="93.7734" y2="11.2068" gradientUnits="userSpaceOnUse">
<stop stop-color="#138677"/>
<stop offset="1" stop-color="#139B77" stop-opacity="0.1"/>
</linearGradient>
<linearGradient id="paint3_linear_291_622" x1="40.9064" y1="135.744" x2="87.0011" y2="8.74845" gradientUnits="userSpaceOnUse">
<stop stop-color="#138677"/>
<stop offset="1" stop-color="#139B77" stop-opacity="0.1"/>
</linearGradient>
<linearGradient id="paint4_linear_291_622" x1="47.2079" y1="138.03" x2="93.3019" y2="11.0358" gradientUnits="userSpaceOnUse">
<stop stop-color="#138677"/>
<stop offset="1" stop-color="#139B77" stop-opacity="0.1"/>
</linearGradient>
<linearGradient id="paint5_linear_291_622" x1="49.5144" y1="138.868" x2="95.6089" y2="11.873" gradientUnits="userSpaceOnUse">
<stop stop-color="#138677"/>
<stop offset="1" stop-color="#139B77" stop-opacity="0.1"/>
</linearGradient>
<linearGradient id="paint6_linear_291_622" x1="50.5628" y1="139.248" x2="96.6572" y2="12.2536" gradientUnits="userSpaceOnUse">
<stop stop-color="#138677"/>
<stop offset="1" stop-color="#139B77" stop-opacity="0.1"/>
</linearGradient>
<linearGradient id="paint7_linear_291_622" x1="19.8963" y1="128.118" x2="65.9906" y2="1.12277" gradientUnits="userSpaceOnUse">
<stop stop-color="#138677"/>
<stop offset="1" stop-color="#139B77" stop-opacity="0.1"/>
</linearGradient>
<linearGradient id="paint8_linear_291_622" x1="65.2671" y1="144.585" x2="111.361" y2="17.5907" gradientUnits="userSpaceOnUse">
<stop stop-color="#138677"/>
<stop offset="1" stop-color="#139B77" stop-opacity="0.1"/>
</linearGradient>
<linearGradient id="paint9_linear_291_622" x1="74.1432" y1="147.807" x2="120.238" y2="20.8122" gradientUnits="userSpaceOnUse">
<stop stop-color="#138677"/>
<stop offset="1" stop-color="#139B77" stop-opacity="0.1"/>
</linearGradient>
<linearGradient id="paint10_linear_291_622" x1="80.119" y1="122.021" x2="51.8993" y2="19.0192" gradientUnits="userSpaceOnUse">
<stop stop-color="#127F6A"/>
<stop offset="1" stop-color="#3DD565" stop-opacity="0.1"/>
</linearGradient>
<linearGradient id="paint11_linear_291_622" x1="82.8339" y1="130.637" x2="74.2165" y2="80.479" gradientUnits="userSpaceOnUse">
<stop stop-color="#126D6A"/>
<stop offset="1" stop-color="#12656A" stop-opacity="0"/>
</linearGradient>
<radialGradient id="paint12_radial_291_622" cx="0" cy="0" r="1" gradientUnits="userSpaceOnUse" gradientTransform="translate(73.9749 101.534) scale(43.9279 43.9279)">
<stop stop-color="#BEEF8F"/>
<stop offset="1" stop-color="#24C9A9"/>
</radialGradient>
<linearGradient id="paint13_linear_291_622" x1="121.5" y1="-6.98758" x2="67.8745" y2="78.6252" gradientUnits="userSpaceOnUse">
<stop stop-color="#D4FFAE"/>
<stop offset="1" stop-color="#D4FFAE" stop-opacity="0"/>
</linearGradient>
</defs>
</svg>
