<svg width="176" height="175" viewBox="0 0 176 175" fill="none" xmlns="http://www.w3.org/2000/svg">
<path d="M79.7801 0.650038C12.2801 7.05004 -24.0499 87.4 20.6601 142.27C20.6601 142.27 20.6601 142.27 20.6501 142.27C41.3101 167.73 75.8101 180.32 109.82 171.56C128.04 166.86 143.79 156.44 155.02 142.89C204.03 83.98 157.87 -6.78996 79.7801 0.650038Z" fill="url(#paint0_radial_291_712)"/>
<path d="M149.81 93.0999C146.96 124 121.18 150.43 86.9899 150.43C44.2999 150.43 14.0999 108.84 26.8499 68.4999C31.2399 54.5199 40.5299 42.2599 53.1799 34.1999C55.7999 32.5399 58.5699 31.0499 61.4599 29.7599C94.2499 15.2099 132.83 31.0599 145.81 64.7299C149.45 74.1999 150.66 83.8499 149.81 93.0999Z" fill="url(#paint1_radial_291_712)"/>
<path d="M116.7 142.99C107.85 147.73 97.7301 150.42 86.9801 150.42C62.4901 150.42 41.2601 136.45 30.8301 116.04C35.2501 118.3 43.4001 121.89 52.8701 123.36C66.6101 125.49 83.2401 122.7 91.0601 126.7C104.1 133.37 106.22 141.03 116.7 142.99Z" fill="url(#paint2_linear_291_712)"/>
<path d="M63.63 114.09C51.5 114.92 34.65 109.18 26.81 106.19C24.96 100.25 23.96 93.9399 23.96 87.3999C23.96 85.0499 24.09 82.73 24.34 80.45C27.76 84.5 35.6 92.9499 45.46 98.1499C58.81 105.2 79.94 112.98 63.63 114.09Z" fill="url(#paint3_linear_291_712)"/>
<path d="M141.05 119.81C138.68 123.76 135.88 127.43 132.73 130.76C124.64 128.55 115.62 124.55 108.31 118.36C95.2997 107.35 93.4797 102.42 63.4497 92.78C42.4997 86.05 31.4697 75 26.7197 68.93C28.1997 64.09 30.2497 59.49 32.7997 55.22C38.7497 61.65 51.9397 74.25 68.6497 80.17C91.6397 88.33 95.3397 87.58 116.1 106.49C124.94 114.56 133.8 118.24 141.05 119.81Z" fill="url(#paint4_linear_291_712)"/>
<path d="M150.01 87.3999C150.01 94.4699 148.85 101.26 146.7 107.6C140.61 107.47 131.18 104.96 120.53 93.8899C101.99 74.6099 74.5601 70.8999 74.1901 64.5999C73.8201 58.2999 102.37 63.4899 119.79 73.1299C132.32 80.0699 141.6 85.0799 149.96 84.8599C149.99 85.6999 150.01 86.5499 150.01 87.3999Z" fill="url(#paint5_linear_291_712)"/>
<path d="M61.2198 52.37C53.6698 48.85 44.9098 48.29 44.5398 51.26C44.1698 54.23 49.7298 63.86 59.7398 62.01C69.7398 60.15 66.7798 54.96 61.2198 52.37Z" fill="url(#paint6_linear_291_712)"/>
<path d="M145.81 64.7299C136.45 59.04 120.48 55.1399 95.7 49.3999C74.85 44.5699 65.56 35.9699 61.46 29.7599C66.77 27.4099 72.46 25.76 78.42 24.95C82.98 29.28 92.39 35.21 111.64 40.13C122.57 42.92 131.06 46.3699 137.56 49.7899C140.95 54.3399 143.73 59.36 145.81 64.7299Z" fill="url(#paint7_linear_291_712)"/>
<path d="M115.71 128C112.46 126.21 101.25 119.84 108.3 132.82C111.07 137.92 123.13 132.08 115.71 128Z" fill="url(#paint8_linear_291_712)"/>
<path d="M100.51 121.32C98.9898 121.43 99.7698 124.66 101.25 125.03C102.74 125.4 105.71 120.95 100.51 121.32Z" fill="url(#paint9_linear_291_712)"/>
<path opacity="0.45" d="M146.69 107.63C145.24 111.92 143.34 115.99 141.05 119.81C138.68 123.76 135.88 127.43 132.73 130.76C128.1 135.65 122.69 139.79 116.71 142.99C107.86 147.73 97.7397 150.42 86.9897 150.42C62.4997 150.42 41.2697 136.45 30.8397 116.04C29.2297 112.9 27.8797 109.61 26.8197 106.19C24.9697 100.25 23.9697 93.94 23.9697 87.4C23.9697 85.05 24.0997 82.73 24.3497 80.45C24.7797 76.49 25.5797 72.63 26.7197 68.92C26.7597 68.78 26.8097 68.63 26.8497 68.49C36.0097 58.66 53.2997 64.3 61.9697 77.2C74.9797 96.58 106.08 154.32 146.69 107.63Z" fill="url(#paint10_linear_291_712)"/>
<path opacity="0.55" d="M146.97 106.78C145.83 110.49 143.72 115.37 141.05 119.81C112.64 167.13 41.8298 157.38 26.5098 105.17C34.3798 115.91 44.9498 124.04 58.9998 128C109.08 142.08 134.74 123.1 146.97 106.78Z" fill="url(#paint11_linear_291_712)"/>
<path d="M145.81 64.7299C149.46 74.1899 150.66 83.85 149.81 93.1C147.89 76.79 139.81 50.27 108.67 37.91C85.8499 28.85 66.7399 30.33 53.1699 34.2C55.7899 32.54 58.5599 31.05 61.4499 29.76C94.2499 15.21 132.83 31.07 145.81 64.7299Z" fill="url(#paint12_linear_291_712)"/>
<defs>
<radialGradient id="paint0_radial_291_712" cx="0" cy="0" r="1" gradientUnits="userSpaceOnUse" gradientTransform="translate(88.0757 87.2747) scale(74.5999 74.5999)">
<stop stop-color="#90DDEF"/>
<stop offset="1" stop-color="#A6D6F9" stop-opacity="0"/>
</radialGradient>
<radialGradient id="paint1_radial_291_712" cx="0" cy="0" r="1" gradientUnits="userSpaceOnUse" gradientTransform="translate(85.3126 62.9191) scale(63.0534 63.0534)">
<stop stop-color="#A0E2EA"/>
<stop offset="1" stop-color="#018ED9"/>
</radialGradient>
<linearGradient id="paint2_linear_291_712" x1="89.8133" y1="170.318" x2="37.543" y2="37.4181" gradientUnits="userSpaceOnUse">
<stop stop-color="#7E31A6"/>
<stop offset="1" stop-color="#7731B1" stop-opacity="0.2"/>
</linearGradient>
<linearGradient id="paint3_linear_291_712" x1="74.6419" y1="176.285" x2="22.3717" y2="43.3851" gradientUnits="userSpaceOnUse">
<stop stop-color="#7E31A6"/>
<stop offset="1" stop-color="#7731B1" stop-opacity="0.2"/>
</linearGradient>
<linearGradient id="paint4_linear_291_712" x1="110.543" y1="162.165" x2="58.2726" y2="29.2649" gradientUnits="userSpaceOnUse">
<stop stop-color="#7E31A6"/>
<stop offset="1" stop-color="#7731B1" stop-opacity="0.2"/>
</linearGradient>
<linearGradient id="paint5_linear_291_712" x1="141.599" y1="149.95" x2="89.3289" y2="17.0504" gradientUnits="userSpaceOnUse">
<stop stop-color="#7E31A6"/>
<stop offset="1" stop-color="#7731B1" stop-opacity="0.2"/>
</linearGradient>
<linearGradient id="paint6_linear_291_712" x1="99.372" y1="166.558" x2="47.1018" y2="33.6585" gradientUnits="userSpaceOnUse">
<stop stop-color="#7E31A6"/>
<stop offset="1" stop-color="#7731B1" stop-opacity="0.2"/>
</linearGradient>
<linearGradient id="paint7_linear_291_712" x1="143.7" y1="149.124" x2="91.4294" y2="16.2237" gradientUnits="userSpaceOnUse">
<stop stop-color="#7E31A6"/>
<stop offset="1" stop-color="#7731B1" stop-opacity="0.2"/>
</linearGradient>
<linearGradient id="paint8_linear_291_712" x1="123.105" y1="157.224" x2="70.8352" y2="24.3245" gradientUnits="userSpaceOnUse">
<stop stop-color="#7E31A6"/>
<stop offset="1" stop-color="#7731B1" stop-opacity="0.2"/>
</linearGradient>
<linearGradient id="paint9_linear_291_712" x1="116.198" y1="159.94" x2="63.9283" y2="27.0402" gradientUnits="userSpaceOnUse">
<stop stop-color="#7E31A6"/>
<stop offset="1" stop-color="#7731B1" stop-opacity="0.2"/>
</linearGradient>
<linearGradient id="paint10_linear_291_712" x1="73.5476" y1="152.364" x2="92.1615" y2="60.6246" gradientUnits="userSpaceOnUse">
<stop stop-color="#6D31A3"/>
<stop offset="1" stop-color="#B842B5" stop-opacity="0.3"/>
</linearGradient>
<linearGradient id="paint11_linear_291_712" x1="93.343" y1="165.78" x2="86.2992" y2="102.015" gradientUnits="userSpaceOnUse">
<stop stop-color="#471AA3"/>
<stop offset="1" stop-color="#4C2EA3" stop-opacity="0.1"/>
</linearGradient>
<linearGradient id="paint12_linear_291_712" x1="165.952" y1="-15.5543" x2="96.2544" y2="70.0841" gradientUnits="userSpaceOnUse">
<stop stop-color="#A4F6F6"/>
<stop offset="1" stop-color="#B5F4F9" stop-opacity="0"/>
</linearGradient>
</defs>
</svg>
