<svg width="148" height="149" viewBox="0 0 148 149" fill="none" xmlns="http://www.w3.org/2000/svg">
<path d="M66.9601 0.860062C9.76007 6.28006 -21.0299 74.3801 16.8601 120.88C34.3701 142.45 63.6101 153.12 92.4301 145.7C107.87 141.72 121.22 132.89 130.73 121.4C172.26 71.4901 133.14 -5.44994 66.9601 0.860062Z" fill="url(#paint0_radial_291_688)"/>
<path d="M73.9103 127.69C53.8003 127.69 36.2803 116.55 27.2103 100.1C7.20028 63.83 34.8003 19.8 75.0903 21.0899C100.72 21.6099 122.37 40.4999 126.5 65.6199C131.92 98.0399 106.87 127.69 73.9103 127.69Z" fill="url(#paint1_radial_291_688)"/>
<g opacity="0.75">
<path d="M95.0804 83C92.8704 82.45 92.2604 85.2 93.5104 85.82C94.7604 86.45 97.9004 88.33 98.5304 87.07C99.1604 85.82 97.5904 83.63 95.0804 83Z" fill="#168E19"/>
<path d="M117.03 59.8C114.89 60.29 112.33 61.37 114.52 62.94C116.72 64.51 120.16 63.88 120.48 62C120.79 60.11 121.11 58.86 117.03 59.8Z" fill="#168E19"/>
<path d="M74.0702 110.28C69.4702 107.52 62.7802 106.52 62.1502 109.34C61.5202 112.16 65.9102 116.55 71.2402 115.92C76.5802 115.3 77.2102 112.16 74.0702 110.28Z" fill="#168E19"/>
<path d="M89.0703 125.5C84.9203 126.73 80.5603 127.47 76.0503 127.64C77.0803 121.11 83.2903 123.17 86.6103 124.07C87.5803 124.34 88.3903 124.87 89.0703 125.5Z" fill="#168E19"/>
<path d="M44.9102 109.97C46.9402 110.86 48.3602 106.52 45.5402 102.76C42.7202 98.9998 41.4602 94.2899 38.0102 93.3499C34.5602 92.4099 32.6802 104.64 44.9102 109.97Z" fill="#168E19"/>
<path d="M31.1103 94.5999C30.0003 94.7999 29.5404 97.1099 32.0504 97.4199C34.5604 97.7399 34.5603 93.9799 31.1103 94.5999Z" fill="#168E19"/>
<path d="M59.0202 81.7499C56.8102 81.5499 54.6302 82.6899 54.9402 85.1999C55.2502 87.7099 58.7002 85.1999 60.2702 85.1999C61.8402 85.1999 62.4702 82.0599 59.0202 81.7499Z" fill="#168E19"/>
<path d="M80.6605 52.5899C78.7605 51.6899 78.4605 55.7299 80.0305 56.3499C81.6005 56.9799 85.9905 55.0899 80.6605 52.5899Z" fill="#168E19"/>
</g>
<path d="M60.5904 72.9701C49.9304 74.8501 48.3604 75.1601 38.6404 83.3201C32.2104 88.7101 25.5004 86.9701 21.7004 85.1701C20.9904 81.6901 20.6104 78.0801 20.6104 74.3801C20.6104 59.2201 26.9404 45.5301 37.1004 35.8301C39.1904 37.0701 41.3504 38.7501 43.0304 40.9901C47.7304 47.2601 46.7904 49.7701 60.5904 56.9801C74.3804 64.1901 71.2504 71.0901 60.5904 72.9701Z" fill="url(#paint2_linear_291_688)"/>
<path d="M122.09 51.54C112.25 49.48 105.54 60.61 98.8405 59.8C91.0005 58.86 93.2004 47.26 86.6104 35.03C83.3104 28.91 83.0804 24.67 83.6704 21.97C100.7 25.11 114.88 36.35 122.09 51.54Z" fill="url(#paint3_linear_291_688)"/>
<path d="M127.22 74.3802C127.22 95.0702 115.44 113 98.2202 121.84C94.2902 115.63 100.66 111.02 108.25 106.21C117.66 100.25 108.88 97.7402 110.44 88.0202C112.01 78.3002 106.05 77.6702 108.87 69.5202C110.88 63.7002 121.36 69.2201 127.19 72.8601C127.21 73.3601 127.22 73.8702 127.22 74.3802Z" fill="url(#paint4_linear_291_688)"/>
<path d="M77.2104 90.5302C71.5104 92.3002 68.4304 85.5102 61.2204 87.0802C54.0104 88.6502 48.0504 101.5 57.7704 101.19C67.4904 100.88 70.0004 99.6202 77.2104 104.64C84.4204 109.66 92.8905 106.21 95.4005 98.3702C97.9005 90.5302 96.3304 84.5702 77.2104 90.5302Z" fill="url(#paint5_linear_291_688)"/>
<path d="M89.1205 67.0101C86.1205 67.9701 85.3605 69.5201 86.3005 71.4001C87.2405 73.2801 91.0005 72.9701 92.8805 75.7901C94.7605 78.6101 99.4705 82.0601 100.72 75.7901C101.98 69.5201 96.0205 64.8101 89.1205 67.0101Z" fill="url(#paint6_linear_291_688)"/>
<path opacity="0.5" d="M78.1503 50.6999C77.5903 54.8799 73.7603 50.6999 67.4903 49.4499C61.2203 48.1999 58.7103 44.4299 61.5303 41.92C64.3503 39.41 68.1103 37.53 71.8803 39.72C75.6403 41.92 78.7703 45.9999 78.1503 50.6999Z" fill="#168E19"/>
<path d="M71.5605 25.9301C63.7205 25.9301 59.9605 30.3201 52.7505 32.8301C48.4505 34.3201 45.0505 32.5901 43.0005 30.9501C51.7205 24.7301 62.3905 21.0701 73.9205 21.0701C74.3205 21.0701 74.7105 21.0701 75.1005 21.0901C75.6505 23.3501 75.4505 25.9301 71.5605 25.9301Z" fill="url(#paint7_linear_291_688)"/>
<path opacity="0.45" d="M124.68 90.6901C120.33 104.24 110.7 115.43 98.2203 121.84C95.3103 123.33 92.2504 124.56 89.0704 125.51C84.9204 126.74 80.5604 127.48 76.0504 127.65C75.3404 127.68 74.6304 127.69 73.9104 127.69C53.8004 127.69 36.2804 116.55 27.2104 100.1C24.6704 95.5001 22.7904 90.4801 21.7004 85.1701C20.9904 81.6901 20.6104 78.0801 20.6104 74.3801C20.6104 67.9401 21.7504 61.7701 23.8404 56.0601C29.8704 74.0701 43.6704 97.3101 75.0404 101.62C81.1604 102.46 86.8803 102.57 92.2203 102.11C105.32 100.96 116.1 96.3801 124.68 90.6901Z" fill="url(#paint8_linear_291_688)"/>
<path opacity="0.45" d="M127.22 74.3799C127.22 80.0699 126.33 85.5499 124.68 90.6899C120.33 104.24 110.7 115.43 98.2204 121.84C95.3104 123.33 92.2505 124.56 89.0705 125.51C84.9205 126.74 80.5604 127.48 76.0504 127.65C75.3404 127.68 74.6305 127.69 73.9105 127.69C53.8005 127.69 36.2804 116.55 27.2104 100.1C36.4304 103.89 47.4104 106.48 60.4305 106.99C73.0605 107.49 83.5404 105.54 92.2204 102.1C110.88 94.7199 121.28 80.4399 126.92 68.6799C127.07 70.0499 127.16 71.4499 127.2 72.8499C127.21 73.3599 127.22 73.8699 127.22 74.3799Z" fill="url(#paint9_linear_291_688)"/>
<path d="M126.51 65.6499C126.51 65.6499 118.92 37.8499 84.0201 28.6999C63.1001 23.2099 48.5801 28.1599 40.3101 32.9999C66.7201 11.4399 107.11 19.9999 122.09 51.5399C125.57 58.8499 126.26 64.6299 126.51 65.6499Z" fill="url(#paint10_linear_291_688)"/>
<defs>
<radialGradient id="paint0_radial_291_688" cx="0" cy="0" r="1" gradientUnits="userSpaceOnUse" gradientTransform="translate(73.9895 74.2748) scale(63.6982 63.6982)">
<stop stop-color="#90DD6F"/>
<stop offset="1" stop-color="#B8FFA9" stop-opacity="0"/>
</radialGradient>
<radialGradient id="paint1_radial_291_688" cx="0" cy="0" r="1" gradientUnits="userSpaceOnUse" gradientTransform="translate(76.5568 53.5182) scale(64.6943 64.6943)">
<stop stop-color="#C3E533"/>
<stop offset="1" stop-color="#1CC61C"/>
</radialGradient>
<linearGradient id="paint2_linear_291_688" x1="38.8858" y1="-7.80772" x2="51.1144" y2="145.519" gradientUnits="userSpaceOnUse">
<stop stop-color="#F2F236"/>
<stop offset="1" stop-color="#F2F236" stop-opacity="0"/>
</linearGradient>
<linearGradient id="paint3_linear_291_688" x1="98.7036" y1="-12.5786" x2="110.932" y2="140.748" gradientUnits="userSpaceOnUse">
<stop stop-color="#F2F236"/>
<stop offset="1" stop-color="#F2F236" stop-opacity="0"/>
</linearGradient>
<linearGradient id="paint4_linear_291_688" x1="103.453" y1="-12.9573" x2="115.682" y2="140.37" gradientUnits="userSpaceOnUse">
<stop stop-color="#F2F236"/>
<stop offset="1" stop-color="#F2F236" stop-opacity="0"/>
</linearGradient>
<linearGradient id="paint5_linear_291_688" x1="66.1008" y1="-9.97823" x2="78.3294" y2="143.349" gradientUnits="userSpaceOnUse">
<stop stop-color="#F2F236"/>
<stop offset="1" stop-color="#F2F236" stop-opacity="0"/>
</linearGradient>
<linearGradient id="paint6_linear_291_688" x1="86.7419" y1="-11.6247" x2="98.9706" y2="141.703" gradientUnits="userSpaceOnUse">
<stop stop-color="#F2F236"/>
<stop offset="1" stop-color="#F2F236" stop-opacity="0"/>
</linearGradient>
<linearGradient id="paint7_linear_291_688" x1="56.2934" y1="-9.19622" x2="68.5221" y2="144.131" gradientUnits="userSpaceOnUse">
<stop stop-color="#F2F236"/>
<stop offset="1" stop-color="#F2F236" stop-opacity="0"/>
</linearGradient>
<linearGradient id="paint8_linear_291_688" x1="65.8076" y1="143.393" x2="73.8032" y2="70.4919" gradientUnits="userSpaceOnUse">
<stop stop-color="#168E26"/>
<stop offset="1" stop-color="#168E26" stop-opacity="0.3"/>
</linearGradient>
<linearGradient id="paint9_linear_291_688" x1="71.1834" y1="140.259" x2="80.1196" y2="64.0655" gradientUnits="userSpaceOnUse">
<stop stop-color="#166F38"/>
<stop offset="1" stop-color="#16653B" stop-opacity="0.3"/>
</linearGradient>
<linearGradient id="paint10_linear_291_688" x1="112.625" y1="-8.28983" x2="79.0733" y2="57.8731" gradientUnits="userSpaceOnUse">
<stop stop-color="#E2FFB5"/>
<stop offset="1" stop-color="#FFFFB3" stop-opacity="0"/>
</linearGradient>
</defs>
</svg>
