<svg width="252" height="168" viewBox="0 0 252 168" fill="none" xmlns="http://www.w3.org/2000/svg">
<path d="M208.75 84.1499C208.75 81.2699 208.6 78.4199 208.3 75.5999C206.09 53.5199 195.62 35.0599 180.71 22.0299C166.95 9.78993 149.07 1.98993 129.21 1.08993C111.48 0.15993 93.1402 4.87994 76.8702 16.5399C76.8302 16.5599 76.7902 16.5899 76.7602 16.6199C76.7502 16.6299 76.7402 16.6399 76.6802 16.6799C76.6602 16.6899 76.6502 16.6999 76.6502 16.6999C62.8402 26.6499 53.1802 39.7399 47.6402 54.0899C20.1702 54.6299 1.9102 59.6799 0.150201 68.8899C-1.7298 78.6999 15.5302 91.0599 43.9202 102.32C43.9602 102.5 44.0002 102.68 44.0402 102.85C44.0502 102.89 44.0602 102.93 44.0702 102.96C44.2302 103.68 44.4102 104.4 44.5902 105.12C44.6102 105.21 44.6302 105.29 44.6602 105.38C44.8402 106.09 45.0402 106.8 45.2402 107.5C45.2602 107.56 45.2702 107.62 45.2902 107.68C45.7202 109.15 46.1802 110.6 46.6902 112.03C46.7002 112.07 46.7202 112.1 46.7302 112.14C46.9502 112.76 47.1702 113.38 47.4102 113.99C52.7502 128.19 62.0802 141.15 75.3302 151.07C75.6702 151.33 76.0202 151.59 76.3702 151.84C76.6002 152.01 76.8302 152.17 77.0602 152.34C77.6902 152.79 78.3202 153.23 78.9602 153.65C95.1902 164.54 113.23 168.78 130.58 167.59C133.8 167.39 136.97 167.01 140.08 166.46C148.15 165.03 155.81 162.43 162.9 158.85C163.64 158.48 164.37 158.09 165.1 157.69C165.22 157.62 165.35 157.56 165.47 157.49C166.19 157.09 166.91 156.69 167.62 156.27C167.68 156.24 167.74 156.2 167.79 156.17C168.49 155.76 169.18 155.33 169.87 154.9C169.93 154.86 169.99 154.83 170.04 154.79C170.75 154.34 171.46 153.87 172.16 153.4C172.19 153.38 172.22 153.36 172.25 153.34C172.31 153.3 172.36 153.26 172.42 153.22C172.87 152.91 173.31 152.61 173.75 152.29C173.86 152.21 173.97 152.14 174.07 152.06C174.51 151.74 174.94 151.42 175.38 151.1C175.47 151.03 175.56 150.96 175.65 150.9C176.68 150.12 177.68 149.33 178.67 148.5C178.82 148.38 178.96 148.25 179.11 148.13C179.44 147.85 179.77 147.57 180.09 147.29C180.28 147.13 180.47 146.96 180.66 146.79C180.94 146.54 181.22 146.29 181.5 146.03C181.69 145.86 181.88 145.68 182.07 145.5C182.09 145.48 182.11 145.46 182.13 145.44C182.23 145.35 182.33 145.25 182.44 145.16C186.74 141.19 190.63 136.75 194.03 131.9C226.92 132.46 249.4 127.36 251.38 117.1C253.21 107.44 236.44 95.2899 208.75 84.1499ZM45.3102 60.9799H45.3002C45.3902 60.6899 45.4802 60.3999 45.5702 60.1099C45.4802 60.3999 45.4002 60.6899 45.3102 60.9799ZM42.9402 71.6699C42.9302 71.7299 42.9202 71.7899 42.9102 71.8499C42.8002 72.5599 42.7002 73.2799 42.6202 73.9999C42.6102 74.1199 42.5902 74.2299 42.5802 74.3499C42.4902 75.0699 42.4102 75.7899 42.3502 76.5099C42.3502 76.5399 42.3402 76.5699 42.3402 76.5999C42.2802 77.2899 42.2202 77.9899 42.1802 78.6799C42.1702 78.8099 42.1602 78.9399 42.1502 79.0799C42.1102 79.7799 42.0702 80.4699 42.0502 81.1699C42.0402 81.3099 42.0402 81.4599 42.0402 81.5999C42.0302 81.9099 42.0202 82.2199 42.0102 82.5299C29.1502 77.0399 21.8902 71.8499 22.6502 67.8799C23.4002 63.9999 31.7202 61.8799 45.1802 61.4699C44.2202 64.7999 43.4702 68.1999 42.9402 71.6699ZM208.41 91.9499C223.15 97.9099 231.64 103.59 230.82 107.86C229.99 112.2 219.68 114.34 203.32 114.35C205.97 107.39 207.73 99.8999 208.41 91.9499ZM10.0402 68.9299C11.7402 60.0899 30.3702 57.5599 46.5502 57.0499C46.3202 57.7099 46.1102 58.3699 45.9002 59.0399C25.4002 59.7599 13.0902 63.4599 11.9702 69.2999C10.8002 75.3999 21.8102 83.8399 42.1702 92.4799C42.2402 92.5099 42.3002 92.5299 42.3702 92.5599C42.3702 92.5599 42.3702 92.5599 42.3802 92.5599C42.4102 92.8299 42.4302 93.0999 42.4602 93.3699C42.5102 93.8399 42.5702 94.3199 42.6202 94.7899C42.2102 94.6199 41.8102 94.4499 41.4102 94.2799C26.1202 87.8099 8.2702 78.1499 10.0402 68.9299ZM245.4 114.12C243.63 123.34 223.47 125.7 206.87 126.05C205.24 126.08 203.56 126.1 201.87 126.1C200.51 126.1 199.13 126.09 197.74 126.07C198.11 125.43 198.48 124.77 198.84 124.12C201.59 124.16 204.26 124.15 206.84 124.09C228.96 123.61 242.31 119.84 243.48 113.75C244.65 107.65 233.64 99.2099 213.27 90.5699C211.77 89.9299 210.22 89.2999 208.64 88.6699C208.64 88.5699 208.65 88.4599 208.65 88.3599C208.68 87.7699 208.7 87.1699 208.72 86.5799C210.54 87.2999 212.31 88.0299 214.04 88.7599C229.32 95.2399 247.17 104.9 245.4 114.12Z" fill="url(#paint0_radial_427_1246)"/>
<path d="M191.89 84.39C191.89 137.96 131.97 168.82 88.4502 139.6C50.0402 113.83 49.0002 57.5499 86.6202 30.4499C86.6202 30.4499 86.6302 30.4399 86.6502 30.4299C86.7002 30.3999 86.7002 30.3899 86.7102 30.3799C86.7402 30.3499 86.7702 30.3299 86.8002 30.3199C130.08 -0.700058 191.89 29.86 191.89 84.39Z" fill="url(#paint1_radial_427_1246)"/>
<path d="M97.2902 84.39C97.6802 88.3 84.0002 84.39 75.4002 84.39C69.6602 84.39 63.5602 85.44 58.9902 83.92C59.0302 77.61 59.9602 71.5099 61.6402 65.7399C63.9702 65.4399 67.9202 66.1099 73.8402 70.7099C84.3902 78.9099 96.9002 80.48 97.2902 84.39Z" fill="url(#paint2_linear_427_1246)"/>
<path d="M143.02 92.5899C133.25 91.8099 122.3 89.0699 120.35 91.0299C118.4 92.9799 136.11 97.9699 152.4 100.8C170.38 103.93 181.72 105.1 177.81 100.02C173.9 94.9399 167.65 88.6799 157.87 91.8099C148.11 94.9399 148.48 93.0299 143.02 92.5899Z" fill="url(#paint3_linear_427_1246)"/>
<path d="M142.24 119.96C142.24 124.19 103.54 112.92 90.6402 118.01C81.0002 121.81 77.9102 124.51 72.0702 124.01C65.1902 114.75 60.6502 103.64 59.3602 91.5599C62.7302 92.8399 68.5302 95.3199 77.7402 100.03C94.5602 108.62 142.24 114.09 142.24 119.96Z" fill="url(#paint4_linear_427_1246)"/>
<path d="M172.76 131.03C167.71 136.16 161.82 140.47 155.33 143.74C153.59 142.18 151.88 140.42 149.28 139.5C142.63 137.15 125.05 132.86 128.56 130.51C132.08 128.16 143.41 129.73 156.7 128.95C164.75 128.47 169.93 129.86 172.76 131.03Z" fill="url(#paint5_linear_427_1246)"/>
<path d="M167.26 120.35C162.58 115.38 149.28 116.44 151.23 121.13C152.3 123.68 173.51 126.99 167.26 120.35Z" fill="url(#paint6_linear_427_1246)"/>
<path d="M110.58 127.38C104.77 126.09 100.81 128.55 100.03 130.51C99.2502 132.46 116.06 135.2 116.45 133.25C116.84 131.3 114.1 128.16 110.58 127.38Z" fill="url(#paint7_linear_427_1246)"/>
<path d="M108.24 93.7699C104.37 92.7999 97.3002 94.5499 97.3002 96.8999C97.3002 99.2499 106.68 101.98 110.59 100.81C114.49 99.6299 116.05 95.7199 108.24 93.7699Z" fill="url(#paint8_linear_427_1246)"/>
<path d="M114.88 101.19C113.72 101 112.14 102.36 112.93 103.54C113.71 104.71 119.57 101.98 114.88 101.19Z" fill="url(#paint9_linear_427_1246)"/>
<path d="M154.36 112.14C151.85 111.39 150.06 112.53 151.23 114.88C152.41 117.22 162.18 114.48 154.36 112.14Z" fill="url(#paint10_linear_427_1246)"/>
<path d="M172.73 124.26C171.35 122.88 170.38 125.43 171.17 126.21C171.95 126.99 175.86 127.38 172.73 124.26Z" fill="url(#paint11_linear_427_1246)"/>
<path d="M137.15 149.8C133.35 150.48 129.43 150.83 125.44 150.83C111.75 150.83 99.0202 146.69 88.4502 139.59C96.2802 137.33 109.3 139.18 122.32 145.36C128.38 148.25 133.35 149.42 137.15 149.8Z" fill="url(#paint12_linear_427_1246)"/>
<path d="M139.9 142.63C137.91 142.63 137.95 143.8 137.95 144.98C137.95 146.15 139.9 146.54 141.08 144.98C142.24 143.41 141.46 142.63 139.9 142.63Z" fill="url(#paint13_linear_427_1246)"/>
<path d="M134.82 143.8C134.05 143.67 133.65 145.75 134.82 146.15C135.99 146.54 137.16 144.19 134.82 143.8Z" fill="url(#paint14_linear_427_1246)"/>
<path d="M90.2602 122.3C87.5502 122.84 83.6102 124.65 87.1302 126.99C90.6502 129.34 98.0702 120.74 90.2602 122.3Z" fill="url(#paint15_linear_427_1246)"/>
<path d="M77.3602 89.8599C75.9502 88.4499 75.0102 92.2099 75.8002 92.5999C76.5702 92.9899 78.9202 91.4199 77.3602 89.8599Z" fill="url(#paint16_linear_427_1246)"/>
<path d="M88.6902 67.5799C85.2302 65.8499 80.4802 64.4499 79.7002 66.0199C78.9202 67.5799 93.7702 78.1399 97.2902 75.7899C100.81 73.4399 91.8202 69.1399 88.6902 67.5799Z" fill="url(#paint17_linear_427_1246)"/>
<path d="M146.15 84.3899C143.68 83.1499 143.8 88.6899 147.32 90.2499C150.84 91.8099 147.72 85.1699 146.15 84.3899Z" fill="url(#paint18_linear_427_1246)"/>
<path d="M184.46 91.03C179.74 90.81 181.33 98.4599 184.46 99.2399C187.59 100.02 192.67 91.42 184.46 91.03Z" fill="url(#paint19_linear_427_1246)"/>
<path d="M162.78 139.35C160.4 140.97 157.92 142.43 155.33 143.74C149.68 146.59 143.57 148.66 137.14 149.8C133.34 150.48 129.42 150.83 125.43 150.83C111.74 150.83 99.0102 146.69 88.4402 139.59C82.1302 135.36 76.6002 130.08 72.0802 123.99C71.1002 122.67 70.1602 121.31 69.2802 119.91C63.9702 111.54 60.4802 101.89 59.3702 91.5399C59.1202 89.1899 58.9902 86.7899 58.9902 84.3799C58.9902 84.2199 58.9902 84.0599 58.9902 83.9099C59.0302 78.7099 59.6602 73.6499 60.8302 68.7999C69.1302 90.7199 84.9902 115.84 115.24 129.36C119 131.04 122.98 132.54 127.19 133.83C139.8 137.69 151.71 139.31 162.78 139.35Z" fill="url(#paint20_linear_427_1246)"/>
<path d="M188.1 106.53C184.82 115.81 179.54 124.15 172.76 131.03C169.72 134.12 166.38 136.91 162.78 139.35C160.4 140.97 157.92 142.43 155.33 143.74C149.68 146.59 143.57 148.66 137.14 149.8C133.34 150.48 129.42 150.83 125.43 150.83C111.74 150.83 99.0102 146.69 88.4402 139.59C82.1302 135.36 76.6002 130.08 72.0802 123.99C71.1002 122.67 70.1602 121.31 69.2802 119.91C86.2802 125.86 101.57 128.72 115.24 129.35C148.65 130.89 172.44 119.1 188.1 106.53Z" fill="url(#paint21_linear_427_1246)"/>
<path d="M86.8002 30.3199C86.7502 30.3599 86.7102 30.3799 86.6902 30.3999C86.7102 30.3799 86.7602 30.3399 86.8002 30.3199Z" fill="url(#paint22_linear_427_1246)"/>
<path d="M191.4 92.45C191.7 89.52 194.1 56.5699 154.17 34.5499C114.38 12.6099 89.1602 28.7099 86.8002 30.3199C97.6902 22.5199 111.03 17.9299 125.44 17.9299C165.4 17.9399 196.24 52.9599 191.4 92.45Z" fill="url(#paint23_linear_427_1246)"/>
<path d="M195.49 89.3199C194.29 88.8099 193.06 88.2999 191.8 87.7999C191.76 88.6799 191.69 89.5399 191.62 90.4099C203.37 95.1599 210.14 99.6899 209.49 103.09C208.83 106.56 200.57 108.26 187.47 108.26C171.7 108.26 148.91 105.8 123.88 101C97.0102 95.8399 73.5402 89.1299 59.0102 82.9099C48.7702 78.5299 42.9702 74.3999 43.5802 71.2399C44.1702 68.1399 50.8102 66.4599 61.5302 66.1299C61.5702 65.9899 61.6002 65.8599 61.6402 65.7299C61.7902 65.21 61.9502 64.6999 62.1102 64.1899C45.7802 64.7599 35.9602 67.7199 35.0702 72.3699C34.1402 77.2299 42.9102 83.9599 59.1402 90.8399C59.1902 90.8599 59.2502 90.8799 59.3002 90.9099C76.0802 97.9999 98.9202 104.52 123.64 109.27C145.58 113.48 166.66 115.85 183.87 116.06C186.11 116.09 188.28 116.08 190.37 116.04C207.99 115.66 218.64 112.65 219.57 107.8C220.5 102.93 211.73 96.2 195.49 89.3199Z" fill="url(#paint24_linear_427_1246)"/>
<path d="M191.89 84.2V84.39C191.89 84.9799 191.88 85.5599 191.87 86.1499C193.32 86.7199 194.74 87.3 196.11 87.89C208.29 93.05 222.52 100.75 221.11 108.09C219.7 115.43 203.63 117.31 190.41 117.6C189.11 117.63 187.78 117.64 186.42 117.64C185.3 117.64 184.16 117.63 183 117.61C165.86 117.32 145.01 114.96 123.34 110.8C98.9102 106.11 76.3002 99.6899 59.5002 92.6899C59.1702 92.5499 58.8502 92.4199 58.5302 92.2799C46.3502 87.1199 32.1202 79.4199 33.5302 72.0799C34.8802 65.0299 49.7402 63.0199 62.6402 62.6099C62.9102 61.8199 63.2002 61.0299 63.5102 60.2499C41.6102 60.6799 27.0602 64.7099 25.6502 72.0399C24.1502 79.8599 37.9102 89.7099 60.5302 98.6799C76.8802 105.16 97.8702 111.18 121.07 115.64C142.73 119.8 163.11 121.97 180.04 122.27C206.31 122.73 224.28 118.67 225.85 110.48C227.32 102.76 213.96 93.0699 191.89 84.2Z" fill="url(#paint25_linear_427_1246)"/>
<defs>
<radialGradient id="paint0_radial_427_1246" cx="0" cy="0" r="1" gradientUnits="userSpaceOnUse" gradientTransform="translate(125.746 84.3899) scale(77.4791 77.4791)">
<stop stop-color="#F963BA"/>
<stop offset="1" stop-color="#FF9CF6" stop-opacity="0"/>
</radialGradient>
<radialGradient id="paint1_radial_427_1246" cx="0" cy="0" r="1" gradientUnits="userSpaceOnUse" gradientTransform="translate(134.632 48.3192) scale(149.981 99.4174)">
<stop stop-color="#FBB6B6"/>
<stop offset="1" stop-color="#ED3558"/>
</radialGradient>
<linearGradient id="paint2_linear_427_1246" x1="46.3088" y1="826.106" x2="293.196" y2="-564.835" gradientUnits="userSpaceOnUse">
<stop stop-color="#BD2B3B"/>
<stop offset="1" stop-color="#E22B57" stop-opacity="0"/>
</linearGradient>
<linearGradient id="paint3_linear_427_1246" x1="76.218" y1="1101.23" x2="873.265" y2="-794.158" gradientUnits="userSpaceOnUse">
<stop stop-color="#BD2B3B"/>
<stop offset="1" stop-color="#E22B57" stop-opacity="0"/>
</linearGradient>
<linearGradient id="paint4_linear_427_1246" x1="97.7322" y1="405.907" x2="303.711" y2="-446.828" gradientUnits="userSpaceOnUse">
<stop stop-color="#BD2B3B"/>
<stop offset="1" stop-color="#E22B57" stop-opacity="0"/>
</linearGradient>
<linearGradient id="paint5_linear_427_1246" x1="88.0854" y1="550.893" x2="606.358" y2="-1272.58" gradientUnits="userSpaceOnUse">
<stop stop-color="#BD2B3B"/>
<stop offset="1" stop-color="#E22B57" stop-opacity="0"/>
</linearGradient>
<linearGradient id="paint6_linear_427_1246" x1="6.40003" y1="1443.59" x2="900.368" y2="-2446.69" gradientUnits="userSpaceOnUse">
<stop stop-color="#BD2B3B"/>
<stop offset="1" stop-color="#E22B57" stop-opacity="0"/>
</linearGradient>
<linearGradient id="paint7_linear_427_1246" x1="38.0238" y1="1089.65" x2="954.124" y2="-2956.44" gradientUnits="userSpaceOnUse">
<stop stop-color="#BD2B3B"/>
<stop offset="1" stop-color="#E22B57" stop-opacity="0"/>
</linearGradient>
<linearGradient id="paint8_linear_427_1246" x1="-34.5468" y1="1703.09" x2="729.206" y2="-2003.72" gradientUnits="userSpaceOnUse">
<stop stop-color="#BD2B3B"/>
<stop offset="1" stop-color="#E22B57" stop-opacity="0"/>
</linearGradient>
<linearGradient id="paint9_linear_427_1246" x1="-507.281" y1="4473.1" x2="1025.15" y2="-6360.03" gradientUnits="userSpaceOnUse">
<stop stop-color="#BD2B3B"/>
<stop offset="1" stop-color="#E22B57" stop-opacity="0"/>
</linearGradient>
<linearGradient id="paint10_linear_427_1246" x1="-229.68" y1="2860.55" x2="952.784" y2="-4549.59" gradientUnits="userSpaceOnUse">
<stop stop-color="#BD2B3B"/>
<stop offset="1" stop-color="#E22B57" stop-opacity="0"/>
</linearGradient>
<linearGradient id="paint11_linear_427_1246" x1="-526.353" y1="3279.89" x2="467.464" y2="-6731.74" gradientUnits="userSpaceOnUse">
<stop stop-color="#BD2B3B"/>
<stop offset="1" stop-color="#E22B57" stop-opacity="0"/>
</linearGradient>
<linearGradient id="paint12_linear_427_1246" x1="104.901" y1="470.824" x2="904.36" y2="-1637.3" gradientUnits="userSpaceOnUse">
<stop stop-color="#BD2B3B"/>
<stop offset="1" stop-color="#E22B57" stop-opacity="0"/>
</linearGradient>
<linearGradient id="paint13_linear_427_1246" x1="-193.139" y1="1682.91" x2="694.932" y2="-6908.31" gradientUnits="userSpaceOnUse">
<stop stop-color="#BD2B3B"/>
<stop offset="1" stop-color="#E22B57" stop-opacity="0"/>
</linearGradient>
<linearGradient id="paint14_linear_427_1246" x1="-410.669" y1="2244.59" x2="589.875" y2="-9901.21" gradientUnits="userSpaceOnUse">
<stop stop-color="#BD2B3B"/>
<stop offset="1" stop-color="#E22B57" stop-opacity="0"/>
</linearGradient>
<linearGradient id="paint15_linear_427_1246" x1="-77.5611" y1="1488.82" x2="698.22" y2="-3946.58" gradientUnits="userSpaceOnUse">
<stop stop-color="#BD2B3B"/>
<stop offset="1" stop-color="#E22B57" stop-opacity="0"/>
</linearGradient>
<linearGradient id="paint16_linear_427_1246" x1="-1018.28" y1="4138.49" x2="-342.523" y2="-5231.12" gradientUnits="userSpaceOnUse">
<stop stop-color="#BD2B3B"/>
<stop offset="1" stop-color="#E22B57" stop-opacity="0"/>
</linearGradient>
<linearGradient id="paint17_linear_427_1246" x1="-64.8006" y1="1589.31" x2="363.714" y2="-1059.96" gradientUnits="userSpaceOnUse">
<stop stop-color="#BD2B3B"/>
<stop offset="1" stop-color="#E22B57" stop-opacity="0"/>
</linearGradient>
<linearGradient id="paint18_linear_427_1246" x1="-588.985" y1="2455.07" x2="-275.098" y2="-2198.81" gradientUnits="userSpaceOnUse">
<stop stop-color="#BD2B3B"/>
<stop offset="1" stop-color="#E22B57" stop-opacity="0"/>
</linearGradient>
<linearGradient id="paint19_linear_427_1246" x1="-299.603" y1="1838.39" x2="0.273671" y2="-1686.14" gradientUnits="userSpaceOnUse">
<stop stop-color="#BD2B3B"/>
<stop offset="1" stop-color="#E22B57" stop-opacity="0"/>
</linearGradient>
<linearGradient id="paint20_linear_427_1246" x1="109.703" y1="161" x2="127.195" y2="39.9446" gradientUnits="userSpaceOnUse">
<stop stop-color="#BD2B3B"/>
<stop offset="1" stop-color="#E22B57" stop-opacity="0"/>
</linearGradient>
<linearGradient id="paint21_linear_427_1246" x1="147.403" y1="179.214" x2="76.5938" y2="20.9664" gradientUnits="userSpaceOnUse">
<stop stop-color="#A62B56"/>
<stop offset="1" stop-color="#AE2B57" stop-opacity="0"/>
</linearGradient>
<linearGradient id="paint22_linear_427_1246" x1="246.715" y1="-77.007" x2="21.9337" y2="268.511" gradientUnits="userSpaceOnUse">
<stop stop-color="#FAD1E2"/>
<stop offset="1" stop-color="#F9DDF9" stop-opacity="0"/>
</linearGradient>
<linearGradient id="paint23_linear_427_1246" x1="217.908" y1="-23.4394" x2="154.51" y2="71.6167" gradientUnits="userSpaceOnUse">
<stop stop-color="#FAD1E2"/>
<stop offset="1" stop-color="#F9DDF9" stop-opacity="0"/>
</linearGradient>
<linearGradient id="paint24_linear_427_1246" x1="112.286" y1="196.676" x2="203.141" y2="60.5279" gradientUnits="userSpaceOnUse">
<stop stop-color="#FAB0B2"/>
<stop offset="1" stop-color="#F2687D"/>
</linearGradient>
<linearGradient id="paint25_linear_427_1246" x1="116.279" y1="124.74" x2="132.305" y2="68.0622" gradientUnits="userSpaceOnUse">
<stop stop-color="#FAB0B2"/>
<stop offset="1" stop-color="#F2687D"/>
</linearGradient>
</defs>
</svg>
