<svg width="227" height="164" viewBox="0 0 227 164" fill="none" xmlns="http://www.w3.org/2000/svg">
<path d="M200.38 80.6901C216.49 70.8601 225.31 61.5101 223.3 54.6801C221.16 47.3701 207.04 44.3101 185.91 45.2801C185.97 45.3901 186.02 45.5001 186.07 45.6101C172.49 18.6301 144.78 0.830078 113.46 0.830078C77.7799 0.830078 47.1799 23.8801 36.3599 56.4201C36.4199 56.2301 36.4799 56.0301 36.5499 55.8401C-7.18012 59.8701 -12.8301 76.0501 26.5399 93.0001C10.4299 102.83 1.60988 112.18 3.61988 119.01C5.93988 126.94 22.3499 129.86 46.5099 128.08C55.0499 140.49 66.7699 150.16 80.1799 156.19C90.3399 160.76 101.6 163.3 113.46 163.3C144.78 163.3 172.66 145.47 186.24 118.18C187.68 117.93 224.87 116.18 226.74 103.21C227.75 96.1601 217.71 88.1501 200.38 80.6901ZM186.78 47.0401C203.99 46.1601 215.21 48.3301 216.82 53.8301C219.45 62.7901 195.52 75.4401 194.48 76.1601C193.73 65.6201 190.96 55.6401 186.56 46.5901C186.63 46.7401 186.71 46.8901 186.78 47.0401ZM35.9399 57.7001C36.1499 57.0101 32.2199 67.8701 32.2199 82.0601C32.2199 84.2801 32.3099 86.1601 32.4399 87.9501C32.4399 87.9501 32.4399 87.9501 32.4299 87.9501C-3.10012 74.2501 -2.49011 61.0301 35.9399 57.7001ZM8.60987 114.81C7.05987 109.52 14.6599 102.02 28.5599 93.8501C31.0899 94.8901 32.8099 95.5501 33.3799 95.7701C34.9299 104.92 38.0199 113.54 42.3599 121.38C41.3999 121.36 11.3899 124.28 8.60987 114.81ZM221.2 99.7601C219.81 109.39 190.48 110.79 189.4 110.97C192.78 102.09 194.47 93.0201 194.68 84.0201C195.75 83.4101 196.82 82.8201 198.5 81.8201C213.4 87.9501 221.99 94.3001 221.2 99.7601Z" fill="url(#paint0_radial_291_637)"/>
<path d="M181.06 82.0602C181.06 84.4202 180.94 86.7502 180.7 89.0502C180.47 91.3202 180.12 93.5602 179.67 95.7702C178.58 101.05 176.88 106.1 174.64 110.84C172.34 115.73 169.46 120.3 166.11 124.46C162.69 128.71 158.76 132.53 154.41 135.84C148.5 140.35 141.82 143.91 134.61 146.28C127.96 148.48 120.84 149.66 113.45 149.66C103.58 149.66 94.2099 147.54 85.7599 143.74C77.1299 139.86 69.4699 134.23 63.2199 127.29C53.2099 116.18 46.8299 101.72 45.9599 85.8002C45.8899 84.5602 45.8599 83.3102 45.8599 82.0502C45.8599 76.0902 46.6299 70.3102 48.0799 64.8002C49.1599 60.6802 50.6299 56.7202 52.4199 52.9502C63.2899 30.1802 86.5299 14.4402 113.46 14.4402C135.79 14.4402 155.6 25.2702 167.9 41.9602C169.88 44.6502 171.67 47.5002 173.25 50.4702C177.6 58.6902 180.31 67.9202 180.92 77.7202C181.01 79.1702 181.06 80.6102 181.06 82.0602Z" fill="url(#paint1_radial_291_637)"/>
<path d="M84.6996 117C84.6096 117.02 84.5196 117.04 84.4296 117.06C82.0396 117.46 81.6496 114.28 82.4396 111.49C83.0496 109.35 84.4096 107.35 85.6896 107.33C86.0796 107.32 86.4596 107.5 86.8096 107.91C91.0296 112.89 87.1196 116.4 84.6996 117Z" fill="#3D3789"/>
<path d="M85.77 143.75C77.14 139.87 69.48 134.24 63.23 127.3C64.36 126.86 65.67 126.6 67.19 126.57C67.62 126.56 68.07 126.57 68.53 126.6C80.46 127.4 80.86 134.95 84.04 138.93C84.76 139.83 85.21 140.62 85.48 141.32C85.89 142.35 85.89 143.16 85.77 143.75Z" fill="#4A3E9E"/>
<g opacity="0.75">
<path d="M100.34 137.73C94.7396 132.5 88.4296 130.78 88.6796 126.63C88.6996 126.36 88.7396 126.09 88.8096 125.8C89.9996 121.03 101.97 125.16 107.1 125.8C113.46 126.6 119.03 126.6 120.22 134.95C121.41 143.3 106.3 143.3 100.34 137.73Z" fill="#4A3E9E"/>
<path d="M137.719 123.42C133.129 124.83 127.609 123.74 126.419 120.97C126.269 120.62 126.189 120.24 126.189 119.84C126.189 116.26 134.639 115.9 137.719 113.48C140.719 111.12 143.389 109.43 145.459 109.25C147.229 109.1 148.549 110.07 149.249 112.68C150.839 118.65 142.889 121.83 137.719 123.42Z" fill="#4A3E9E"/>
<path d="M164.36 77.2901C161.84 78.6901 158.74 79.8901 158.09 77.7201C157.81 76.8001 157.97 75.2801 158.8 72.9201C160.93 66.8301 166.75 64.0101 170.28 65.1701C171.36 65.5201 172.23 66.2401 172.71 67.3501C175.49 73.7101 167.94 75.3001 164.36 77.2901Z" fill="#4A3E9E"/>
<path d="M73.7899 101.09C73.7599 101.11 73.7299 101.13 73.6999 101.15C66.2799 105.2 56.1999 95.9802 56.9999 92.4002C57.1399 91.8002 57.3099 91.3502 57.5499 91.0102C58.7299 89.3402 61.3799 90.5502 67.3399 91.2102C74.4399 92.0002 78.0199 98.6702 73.7899 101.09Z" fill="#4A3E9E"/>
<path d="M56.9897 79.6802C56.7197 79.8502 56.4597 79.9702 56.2097 80.0502C53.6697 80.8502 52.9097 76.5902 51.8197 73.3202C50.8097 70.3002 51.7897 69.2602 53.0697 69.4902C53.3097 69.5302 53.5597 69.6202 53.8097 69.7402C57.7897 71.7202 60.1697 77.6902 56.9897 79.6802Z" fill="#4A3E9E"/>
<path d="M154.41 135.84C148.5 140.35 141.82 143.91 134.61 146.28C134.32 145.98 134.05 145.65 133.83 145.29C132.93 143.89 132.68 142.04 134.14 139.71C137.43 134.44 141.29 136.11 146.87 134.94C148.95 134.5 150.57 134.51 151.84 134.77C152.95 134.99 153.79 135.4 154.41 135.84Z" fill="#4A3E9E"/>
<path d="M179.67 95.7701C177.46 106.48 172.72 116.26 166.11 124.46C165.31 124.05 164.59 123.48 164.01 122.69C163.99 122.67 163.97 122.64 163.96 122.62C159.98 117.05 165.95 111.88 168.33 101.94C169.77 95.9201 173.84 95.0001 176.82 95.2201C178.03 95.3001 179.06 95.5801 179.67 95.7701Z" fill="#4A3E9E"/>
<path d="M181.06 82.06C181.06 84.42 180.94 86.75 180.7 89.05C179.94 88.97 179.18 88.72 178.68 88.06C178.51 87.83 178.37 87.56 178.27 87.22C177.47 84.44 174.67 85.51 175.49 82.85C176.29 80.25 177.8 78.96 179.09 78.32C179.82 77.96 180.49 77.8 180.92 77.74C181.01 79.17 181.06 80.61 181.06 82.06Z" fill="#4A3E9E"/>
<path d="M118.23 114.67C118.23 114.68 118.23 114.69 118.22 114.7C117.39 118.24 109.28 116.99 107.09 116.26C104.7 115.46 99.1498 111.69 100.73 107.91C101.29 106.57 102.13 106.1 103.13 106.16C105.66 106.28 109.18 109.73 111.47 110.3C115.79 111.37 118.84 111.93 118.23 114.67Z" fill="#4A3E9E"/>
<path d="M64.5496 113.08C64.2796 113.55 63.9696 113.91 63.6096 114.17C61.8896 115.43 59.2996 114.27 56.9896 112.29C55.0696 110.64 54.2796 107.85 55.1596 107.08C55.5496 106.73 56.2796 106.79 57.3896 107.52C60.9696 109.9 66.1396 110.29 64.5496 113.08Z" fill="#4A3E9E"/>
<path d="M153.52 110.57C152.2 111.69 150.68 110.64 149.9 109.3C149.63 108.84 149.45 108.36 149.39 107.91C149.15 106.15 149.7 105.48 152.29 106.79C153.4 107.35 154.11 107.86 154.41 108.38C154.79 109.05 154.51 109.73 153.52 110.57Z" fill="#4A3E9E"/>
<path d="M154.42 95.9801C154.4 95.9401 154.37 95.8901 154.35 95.8501C152.97 93.1901 157.23 92.7701 158.8 90.8101C160.17 89.1001 163.06 86.6501 164.56 88.1601C164.8 88.4001 165.01 88.7501 165.16 89.2201C167.14 95.1801 156.01 98.7601 154.42 95.9801Z" fill="#4A3E9E"/>
<path d="M124.59 139.72C123.88 139.58 122.82 139.04 122.33 136.84C122.29 136.63 122.24 136.39 122.21 136.14C121.81 133.36 121.81 130.18 123.4 130.18C124.2 130.18 124.2 132.96 126.98 135.75C127.28 136.05 127.45 136.39 127.52 136.74C127.82 138.27 126.21 140.04 124.59 139.72Z" fill="#4A3E9E"/>
<path d="M134.9 103.05C134.21 102.94 133.54 102.7 132.94 102.35C129.08 100.04 133.49 91.76 137.36 94.87C137.48 94.97 137.59 95.07 137.71 95.19C143.12 100.59 138.77 103.69 134.9 103.05Z" fill="#4A3E9E"/>
<path d="M84.6997 117C84.2597 116.5 83.8697 115.87 83.6397 115.07C82.9997 112.85 84.9097 108.85 85.6997 107.33C86.0897 107.32 86.4697 107.5 86.8197 107.91C91.0297 112.89 87.1197 116.4 84.6997 117Z" fill="#4A3E9E"/>
</g>
<g opacity="0.7">
<path d="M90.7897 113.08C89.9897 113.08 89.5997 116.26 90.3897 116.66C91.1897 117.06 93.9697 113.08 90.7897 113.08Z" fill="#3D3789"/>
<path d="M168.95 56.3902C165.5 56.0502 165.91 60.2402 169.13 61.0902C172.35 61.9402 175.07 56.9902 168.95 56.3902Z" fill="#3D3789"/>
<path d="M151.24 125.41C149.1 125.41 149.25 127 151.24 128.59C153.22 130.18 158.79 125.41 151.24 125.41Z" fill="#3D3789"/>
<path d="M61.7599 80.07C59.0999 81.14 60.9599 83.25 62.9499 84.05C64.9499 84.84 65.7399 78.48 61.7599 80.07Z" fill="#3D3789"/>
<path d="M54.6097 60.19C52.9997 60.51 53.8098 62.97 56.1998 63.37C58.5798 63.77 58.5797 59.4 54.6097 60.19Z" fill="#3D3789"/>
<path d="M168.73 49.8501C166.74 50.2501 169.13 54.2201 170.72 52.6301C172.31 51.0401 170.72 49.4501 168.73 49.8501Z" fill="#3D3789"/>
<path d="M99.5397 98.7601C97.7697 99.7401 99.9397 103.13 102.72 102.34C105.51 101.55 103.12 96.7701 99.5397 98.7601Z" fill="#3D3789"/>
</g>
<path d="M127.52 136.74C127.82 138.27 126.21 140.04 124.59 139.72C123.88 139.58 122.82 139.04 122.33 136.84C124.36 137.89 126.18 137.45 127.52 136.74Z" fill="#3D3789"/>
<path d="M51.8197 73.3102C50.8097 70.2902 51.7897 69.2502 53.0697 69.4802C51.8097 72.2202 54.7397 77.6202 56.2197 80.0402C53.6697 80.8402 52.9097 76.5802 51.8197 73.3102Z" fill="#3D3789"/>
<path d="M63.6096 114.16C61.8896 115.42 59.2996 114.26 56.9896 112.28C55.0696 110.63 54.2796 107.84 55.1596 107.07C56.1096 111.34 60.7996 113.34 63.6096 114.16Z" fill="#3D3789"/>
<path d="M73.7899 101.09C73.7599 101.11 73.7299 101.13 73.6999 101.15C66.2799 105.2 56.1999 95.9802 56.9999 92.4002C57.1399 91.8002 57.3099 91.3503 57.5499 91.0103C58.6599 92.5103 60.4599 94.4302 63.3599 96.7802C67.8599 100.43 71.4499 101.18 73.7899 101.09Z" fill="#3D3789"/>
<path d="M100.73 107.91C101.29 106.57 102.13 106.1 103.13 106.16C101.7 108.08 101.229 110.54 104.309 113.08C109.129 117.04 115.149 115.76 118.219 114.7C117.389 118.24 109.28 116.99 107.09 116.26C104.71 115.46 99.1595 111.69 100.73 107.91Z" fill="#3D3789"/>
<path d="M120.22 134.95C121.41 143.3 106.3 143.3 100.34 137.73C94.7396 132.5 88.4296 130.78 88.6796 126.63C92.4696 128.88 98.7095 133.7 105.91 138.13C116.24 144.49 120.22 134.95 120.22 134.95Z" fill="#3D3789"/>
<path d="M134.9 103.05C138.44 102.21 137.92 97.4501 137.36 94.8701C137.48 94.9701 137.59 95.0701 137.71 95.1901C143.12 100.59 138.77 103.69 134.9 103.05Z" fill="#3D3789"/>
<path d="M149.25 112.68C150.84 118.64 142.89 121.83 137.72 123.42C133.13 124.83 127.61 123.74 126.42 120.97C127.68 121.65 129.46 122.41 131.36 122.62C134.94 123.02 143.29 121.43 146.07 115.86C147.68 112.65 146.63 110.49 145.46 109.25C147.23 109.1 148.55 110.06 149.25 112.68Z" fill="#3D3789"/>
<path d="M154.4 108.39C154.79 109.05 154.51 109.74 153.52 110.58C152.2 111.7 150.68 110.65 149.9 109.31C151.83 110.22 153.48 109.22 154.4 108.39Z" fill="#3D3789"/>
<path d="M165.15 89.2202C167.14 95.1802 156 98.7602 154.41 95.9802C154.39 95.9402 154.36 95.8902 154.34 95.8502C163.08 95.0902 164.6 91.0302 164.54 88.1602C164.79 88.4002 165 88.7502 165.15 89.2202Z" fill="#3D3789"/>
<path d="M164.36 77.2902C161.84 78.6902 158.74 79.8902 158.09 77.7202C161.04 75.0802 167.84 74.3502 171.13 71.7302C173.76 69.6302 171.87 66.8302 170.29 65.1802C171.37 65.5302 172.24 66.2502 172.72 67.3602C175.49 73.7102 167.94 75.3002 164.36 77.2902Z" fill="#3D3789"/>
<path d="M85.4795 141.31C85.8895 142.35 85.8995 143.16 85.7695 143.74C77.1395 139.86 69.4795 134.23 63.2295 127.29C64.3595 126.85 65.6695 126.59 67.1895 126.56C68.6695 128.6 70.7595 131.1 73.6995 134.15C76.4895 137.04 80.6295 139.42 85.4795 141.31Z" fill="#3D3789"/>
<path d="M151.83 134.78C152.96 134.99 153.79 135.4 154.41 135.85C148.5 140.36 141.82 143.92 134.61 146.29C134.32 145.99 134.05 145.66 133.83 145.3C141.37 142.62 148.4 137.51 151.83 134.78Z" fill="#3D3789"/>
<path d="M179.67 95.7702C177.46 106.48 172.72 116.26 166.11 124.46C165.31 124.05 164.59 123.48 164.01 122.69C171.95 115.49 175.85 99.7302 176.83 95.2202C178.03 95.3002 179.06 95.5802 179.67 95.7702Z" fill="#3D3789"/>
<path d="M181.06 82.0602C181.06 84.4202 180.94 86.7502 180.7 89.0502C179.94 88.9702 179.18 88.7202 178.68 88.0602C180.66 85.6102 179.73 80.7403 179.09 78.3203C179.82 77.9603 180.49 77.8002 180.92 77.7402C181.01 79.1702 181.06 80.6102 181.06 82.0602Z" fill="#3D3789"/>
<path opacity="0.35" d="M181.06 82.06C181.06 84.42 180.94 86.75 180.7 89.05C180.47 91.32 180.12 93.56 179.67 95.77C177.46 106.48 172.72 116.26 166.11 124.46C162.69 128.71 158.76 132.53 154.41 135.84C148.5 140.35 141.82 143.91 134.61 146.28C127.96 148.48 120.84 149.66 113.45 149.66C103.58 149.66 94.21 147.54 85.76 143.74C77.13 139.86 69.47 134.23 63.22 127.29C53.21 116.18 46.83 101.72 45.96 85.8C64.75 143.09 179.67 133.55 173.25 50.48C177.6 58.7 180.31 67.93 180.92 77.73C181.01 79.17 181.06 80.61 181.06 82.06Z" fill="url(#paint2_linear_291_637)"/>
<path opacity="0.55" d="M174.64 110.84C172.34 115.73 169.46 120.3 166.11 124.46C162.69 128.71 158.76 132.53 154.41 135.84C148.5 140.35 141.82 143.91 134.61 146.28C127.96 148.48 120.84 149.66 113.45 149.66C103.58 149.66 94.2099 147.54 85.7599 143.74C77.1299 139.86 69.4699 134.23 63.2199 127.29C53.2099 116.18 46.8299 101.72 45.9599 85.8C45.8899 84.56 45.8599 83.31 45.8599 82.05C45.8599 76.09 46.6299 70.31 48.0799 64.8C61.8399 93.1 99.2899 146.85 174.64 110.84Z" fill="url(#paint3_linear_291_637)"/>
<path d="M185.79 80.92C184.26 80.26 182.66 79.61 180.99 78.96C180.34 78.71 179.68 78.45 179.01 78.2C178.41 78.53 177.8 78.86 177.17 79.18C178.51 79.65 179.8 80.13 181.05 80.6C182.14 81.02 183.2 81.44 184.22 81.86C196.63 86.96 203.77 92.24 203.11 96.79C202.39 101.78 192.38 104.97 176.65 106.12C164.24 107.03 148.26 106.66 130.47 104.93C125.34 104.42 120.05 103.81 114.66 103.08C113.47 102.92 112.27 102.75 111.06 102.57C86.77 99.06 65.04 93.85 49.41 88.23C48.75 87.99 48.1 87.75 47.46 87.51C46.97 87.33 46.5 87.15 46.02 86.97C31.95 81.55 23.72 75.83 24.42 70.97C25.11 66.18 34.33 63.06 48.94 61.8C49.1 61.28 49.27 60.76 49.45 60.25C31.61 61.89 20.1 66.09 19.19 72.43C18.34 78.3 26.7 84.96 41.12 91.18C41.67 91.42 42.23 91.65 42.8 91.89C44.09 92.42 45.43 92.96 46.8 93.48C60.66 98.78 78.84 103.62 99.25 107.15C102.81 107.77 106.45 108.35 110.14 108.88C111.81 109.12 113.46 109.35 115.11 109.56C137.43 112.5 157.97 113.27 174.01 112.13C193.79 110.73 206.73 106.41 207.7 99.67C208.57 93.8 200.21 87.13 185.79 80.92Z" fill="url(#paint4_linear_291_637)"/>
<path d="M204.86 59.2701C203.08 53.1901 191.33 50.6401 173.75 51.4501C174 51.9401 174.24 52.4201 174.47 52.9201C188.79 52.1901 198.13 53.9901 199.47 58.5701C200.83 63.2201 193.71 69.9201 180.88 77.1501C180.27 77.5001 179.64 77.8501 179 78.2001C178.4 78.5301 177.79 78.8601 177.16 79.1801C162.48 86.9501 141.7 95.1701 118.14 102.07C116.97 102.41 115.81 102.75 114.66 103.08C109.42 104.57 104.28 105.92 99.2599 107.14C82.1599 111.3 66.6099 113.89 54.2799 114.78C38.2299 115.94 27.6399 114.21 26.2099 109.31C24.9199 104.9 31.2399 98.6701 42.8099 91.8701C42.2399 91.6301 41.6799 91.4001 41.1299 91.1601C27.7299 99.3401 20.3899 107.12 22.0499 112.8C23.9799 119.4 37.6399 121.83 57.7399 120.35C73.6899 119.17 93.6999 115.53 115.12 109.54C116.72 109.09 118.33 108.64 119.94 108.16C123.52 107.11 127.03 106.03 130.48 104.92C150.47 98.4501 168.01 90.9901 181.04 83.6801C182.13 83.0701 183.19 82.4601 184.22 81.8501C184.75 81.5401 185.27 81.2201 185.79 80.9101C199.19 72.7401 206.53 64.9601 204.86 59.2701Z" fill="url(#paint5_linear_291_637)"/>
<path d="M167.9 41.9802C160.92 35.3402 143.49 18.4902 108.09 21.8102C76.0099 24.8302 59.0199 43.6602 52.4199 52.9602C63.2899 30.1902 86.5299 14.4502 113.46 14.4502C135.79 14.4602 155.6 25.2902 167.9 41.9802Z" fill="url(#paint6_linear_291_637)"/>
<defs>
<radialGradient id="paint0_radial_291_637" cx="0" cy="0" r="1" gradientUnits="userSpaceOnUse" gradientTransform="translate(113.457 82.0615) scale(76.6789 76.6789)">
<stop stop-color="#C7F1F6"/>
<stop offset="1" stop-color="#D3F4F9" stop-opacity="0"/>
</radialGradient>
<radialGradient id="paint1_radial_291_637" cx="0" cy="0" r="1" gradientUnits="userSpaceOnUse" gradientTransform="translate(103.915 46.2725) scale(119.171 119.171)">
<stop stop-color="#31E7C2"/>
<stop offset="1" stop-color="#652FB0"/>
</radialGradient>
<linearGradient id="paint2_linear_291_637" x1="148.075" y1="177.521" x2="97.1752" y2="37.1487" gradientUnits="userSpaceOnUse">
<stop stop-color="#4A3E9E"/>
<stop offset="1" stop-color="#4AE09E" stop-opacity="0.5"/>
</linearGradient>
<linearGradient id="paint3_linear_291_637" x1="116.034" y1="164.041" x2="106.755" y2="57.9992" gradientUnits="userSpaceOnUse">
<stop stop-color="#3D3789"/>
<stop offset="1" stop-color="#3DCC5E" stop-opacity="0.2"/>
</linearGradient>
<linearGradient id="paint4_linear_291_637" x1="111.369" y1="123.439" x2="114.947" y2="59.4163" gradientUnits="userSpaceOnUse">
<stop stop-color="#83ECEC"/>
<stop offset="1" stop-color="#8EE2D3" stop-opacity="0.3"/>
</linearGradient>
<linearGradient id="paint5_linear_291_637" x1="119.529" y1="108.149" x2="108.395" y2="67.5886" gradientUnits="userSpaceOnUse">
<stop stop-color="#83ECEC"/>
<stop offset="1" stop-color="#8EE2D3" stop-opacity="0.3"/>
</linearGradient>
<linearGradient id="paint6_linear_291_637" x1="109.936" y1="4.0844" x2="110.133" y2="41.7138" gradientUnits="userSpaceOnUse">
<stop stop-color="#C7F1F6"/>
<stop offset="1" stop-color="#D3F4F9" stop-opacity="0"/>
</linearGradient>
</defs>
</svg>
