<svg width="207" height="140" viewBox="0 0 207 140" fill="none" xmlns="http://www.w3.org/2000/svg">
<path d="M181.43 70.04C181.1 70.97 181.89 69.08 181.89 67.3C181.89 62.11 177.16 58.15 171.99 59.15C170.94 52.71 168.99 46.48 166.24 40.63C166.26 40.64 166.28 40.64 166.29 40.65C166.06 40.17 165.83 39.69 165.6 39.21C165.58 39.2 165.56 39.19 165.54 39.19C154.4 16.83 131.52 0.47998 103.21 0.47998C83.5001 0.47998 65.0501 8.08998 51.0201 24.04C51.0201 24.04 51.0201 24.04 51.0201 24.05C49.9901 25.24 49.0001 26.47 48.0501 27.73C21.8601 25.89 3.44013 29.8 0.550135 39.5C-2.33987 49.19 10.8901 62.5 33.7501 75.26C34.8901 92.56 42.4801 108.24 55.1101 120.35C76.6601 141.18 102.73 139.51 103.41 139.65V139.64C124.37 139.47 145.05 129.93 158.45 112.41C158.78 112.39 201.23 116.38 205.92 100.63C208.44 92.24 198.87 81.14 181.43 70.04ZM9.37013 40.26C11.5301 33 25.3701 30 45.6601 31.1C46.0801 30.47 42.0301 36.15 38.8601 43.96C38.8001 43.97 38.7401 43.98 38.6701 43.98C38.5001 44.4 38.3301 44.83 38.1701 45.26C38.2301 45.25 38.2901 45.25 38.3501 45.24C35.8401 51.79 34.2901 58.66 33.7801 65.64C33.7701 65.65 33.7601 65.65 33.7601 65.66C33.7301 66.16 33.7001 66.65 33.6801 67.15C16.7601 57.2 7.25013 47.38 9.37013 40.26ZM46.9401 29.26C46.8901 29.34 46.8301 29.41 46.7801 29.49C46.8301 29.41 46.8801 29.33 46.9401 29.26ZM198.46 96.54C196.33 103.71 182.84 106.72 162.99 105.74C164.82 102.66 166.3 99.64 167.6 96.51C167.6 96.51 167.6 96.51 167.59 96.51C170.52 89.45 172.12 82.48 172.67 75.54C175.44 75.84 178.02 74.77 179.77 72.82C179.71 72.88 179.66 72.96 179.6 73.02C193.08 81.8 200.34 90.23 198.46 96.54ZM181.16 70.69C181.1 70.82 181.04 70.94 180.98 71.06C181.05 70.93 181.11 70.81 181.16 70.69ZM180.78 71.44C180.71 71.56 180.64 71.68 180.57 71.79C180.64 71.67 180.71 71.56 180.78 71.44ZM180.32 72.15C180.24 72.26 180.16 72.37 180.08 72.47C180.16 72.36 180.24 72.25 180.32 72.15Z" fill="url(#paint0_radial_291_728)"/>
<path d="M162.1 67.99C162.1 71.42 159.32 74.2 155.89 74.2C152.46 74.2 149.68 71.42 149.68 67.99C149.68 64.56 152.46 61.78 155.89 61.78C159.32 61.78 162.1 64.56 162.1 67.99Z" fill="url(#paint1_radial_291_728)"/>
<path d="M155.36 70.26C155.23 116.59 98.8202 139.29 66.5902 107.06C33.6602 74.45 56.8302 17.99 103.22 17.99C133.46 17.99 155.43 42.92 155.36 70.26Z" fill="url(#paint2_radial_291_728)"/>
<g opacity="0.5">
<path d="M155.041 64.9101C154.071 64.8301 152.931 64.8301 151.661 65.0001C147.771 65.5101 141.811 67.7201 135.511 75.3701C134.511 76.5901 133.581 77.74 132.671 78.86C122.581 91.35 117.971 97.0601 87.8706 99.7901C78.3606 100.65 71.7806 103.83 67.2206 107.69C67.0006 107.48 66.7906 107.28 66.5806 107.06C71.2506 103.08 78.0206 99.7901 87.7906 98.9101C117.511 96.2101 121.751 90.97 131.981 78.3C132.881 77.18 133.811 76.0301 134.821 74.8101C141.331 66.9001 147.541 64.63 151.601 64.11C152.841 63.95 153.961 63.9401 154.931 64.0101C154.981 64.3101 155.021 64.6101 155.041 64.9101Z" fill="#FFED9F"/>
<path d="M154.77 77.4598C154.73 77.7498 154.69 78.0399 154.64 78.3199C150.01 78.2499 145.88 80.1398 142.31 83.9698C140.23 86.1998 138.45 88.2899 136.88 90.1299C129.15 99.1899 124.48 104.66 101.53 108.36C92.6405 109.79 86.1004 112.91 82.0504 117.63C81.7704 117.51 81.4904 117.38 81.2104 117.25C85.3904 112.26 92.1705 108.97 101.39 107.49C124.02 103.84 128.35 98.7698 136.21 89.5598C137.79 87.7098 139.58 85.6098 141.67 83.3698C145.97 78.7398 150.66 77.3798 154.77 77.4598Z" fill="#FFED9F"/>
<path d="M151.4 89.8499C151.27 90.1599 151.14 90.4799 151 90.7899C147.27 91.4199 144.07 93.3799 141.44 96.6699C134.28 105.62 129.53 110.24 116.96 113.98C108.46 116.5 104.87 119.66 103.38 122.13H103.22C102.93 122.13 102.65 122.13 102.36 122.12C104.31 118.4 109.13 115.37 116.7 113.12C129.03 109.46 133.7 104.91 140.74 96.1098C144.04 91.9998 147.89 90.3399 151.4 89.8499Z" fill="#FFED9F"/>
<path d="M100.871 76.2698C97.6005 81.9598 89.4106 84.1198 77.2906 86.7698C66.8006 89.0598 61.4706 93.6898 58.8206 97.2598C58.6506 96.9798 58.4805 96.6998 58.3105 96.4198C58.5505 96.0998 58.8205 95.7798 59.1105 95.4398C61.8505 92.2798 67.2006 88.0698 77.1006 85.8998C88.9906 83.2998 97.0106 81.1898 100.101 75.8298C102.071 72.3898 101.991 67.6898 99.8506 61.0298C98.0406 55.4098 95.3206 49.7698 92.7006 44.3198C88.7706 36.1498 84.9706 28.2698 84.7306 21.3798C85.0306 21.2698 85.3205 21.1598 85.6205 21.0498C85.7505 27.8298 89.5505 35.7298 93.5005 43.9298C96.1405 49.4098 98.8706 55.0698 100.701 60.7598C102.921 67.6698 102.981 72.5998 100.871 76.2698Z" fill="#FFED9F"/>
<path d="M89.2004 67.5499C87.1304 71.4499 80.7004 73.0499 69.5604 74.6399C61.4604 75.7999 55.9504 78.4999 52.3404 81.1399C52.2704 80.8099 52.2004 80.4699 52.1304 80.1399C55.8404 77.5199 61.3704 74.9099 69.4304 73.7599C80.0304 72.2499 86.5304 70.6799 88.4104 67.1299C89.6304 64.8199 89.0604 61.4899 86.5504 56.3499C86.0004 55.2299 85.4604 54.1399 84.9404 53.0799C80.2104 43.5599 76.3504 35.7899 77.6404 24.6999C77.9604 24.5199 78.2704 24.3399 78.6004 24.1699C77.1004 35.2799 80.8104 42.7599 85.7404 52.6799C86.2704 53.7399 86.8104 54.8299 87.3604 55.9499C90.0004 61.3899 90.5704 64.9599 89.2004 67.5499Z" fill="#FFED9F"/>
<path d="M65.5804 60.0399C64.4104 60.4899 63.0904 60.9999 61.6804 61.5899C56.3304 63.8599 53.0404 66.3099 51.1904 68.0399C51.2004 67.6199 51.2304 67.1999 51.2604 66.7799C53.2504 65.0599 56.4504 62.8499 61.3404 60.7799C62.7604 60.1799 64.0904 59.6699 65.2704 59.2199C72.2704 56.5399 75.1704 55.4299 73.2104 44.3999C71.9104 37.0799 72.1904 31.4699 72.7304 27.8599C73.0704 27.6099 73.4104 27.3699 73.7604 27.1299C73.1604 30.6099 72.7004 36.4799 74.0804 44.2499C76.1704 55.9899 72.6304 57.3499 65.5804 60.0399Z" fill="#FFED9F"/>
<path d="M65.1003 46.4699C62.8703 49.9099 58.3003 51.1199 54.5503 51.5099C54.6703 51.1899 54.8003 50.8699 54.9303 50.5499C58.4003 50.1299 62.4203 48.9699 64.3603 45.9799C65.9903 43.4699 65.9303 39.9899 64.1703 35.6099C64.3903 35.3599 64.6003 35.1199 64.8303 34.8799C66.8603 39.7399 66.9503 43.6299 65.1003 46.4699Z" fill="#FFED9F"/>
<path d="M154.13 59.0699C146.21 57.4899 142.88 52.3999 139.64 47.4599C138.95 46.3999 138.23 45.3099 137.49 44.2899C136.93 43.5199 136.4 42.7399 135.9 41.9899C132.19 36.5099 128.68 31.3299 110.86 28.4899C102.28 27.1199 96.3204 24.3699 93.1604 20.2999C92.8504 19.8999 92.5904 19.5099 92.3604 19.1299C92.6704 19.0599 92.9804 18.9999 93.2904 18.9399C93.4704 19.2299 93.6804 19.5199 93.9104 19.8199C96.0004 22.4699 100.66 25.9699 111 27.6199C129.2 30.5199 132.81 35.8499 136.63 41.4999C137.13 42.2399 137.65 43.0099 138.21 43.7699C138.97 44.8099 139.69 45.91 140.39 46.9799C143.46 51.6699 146.62 56.4899 153.93 58.1099C153.99 58.4199 154.07 58.7399 154.13 59.0699Z" fill="#FFED9F"/>
<path d="M150.43 48.0499C144.94 46.5499 141.95 42.7399 138.81 38.7399C135.27 34.2399 131.27 29.1399 122.91 26.3999C114.01 23.4799 109.72 20.4599 107.65 18.1799C108.11 18.2199 108.58 18.2599 109.04 18.3199C111.21 20.3699 115.34 22.9899 123.18 25.5599C131.79 28.3799 135.89 33.6 139.5 38.2C142.51 42.03 145.19 45.4399 149.91 46.9799C150.09 47.33 150.26 47.6899 150.43 48.0499Z" fill="#FFED9F"/>
<path d="M136.801 56.96C135.111 48.49 123.381 36.3 112.681 31.86C107.191 29.59 102.511 29.58 99.1406 31.82C97.0706 33.2 98.5606 37.46 100.831 43.9C101.861 46.82 103.021 50.12 103.991 53.61C104.761 56.38 105.251 59.46 105.731 62.43C107.131 71.13 108.451 79.35 116.201 80.26C116.671 80.32 117.151 80.34 117.631 80.34C122.271 80.34 127.421 77.82 131.381 73.52C135.871 68.65 137.901 62.46 136.801 56.96ZM130.721 72.92C126.531 77.46 121.011 79.93 116.301 79.38C109.211 78.55 107.941 70.65 106.601 62.29C106.121 59.29 105.621 56.19 104.841 53.37C103.861 49.85 102.691 46.53 101.661 43.6C99.7606 38.21 98.1206 33.56 99.6206 32.56C103.551 29.94 108.701 31.18 112.331 32.68C122.621 36.94 134.311 49.06 135.921 57.13C136.971 62.35 135.021 68.26 130.721 72.92Z" fill="#FFED9F"/>
<path d="M127.72 48.3799C122.45 42.1899 114.25 36.1899 107.37 36.1899C107.04 36.1899 106.73 36.1999 106.41 36.2299C105.77 36.2799 105.29 36.5999 105.02 37.1299C103.4 40.3099 109.71 50.8599 109.77 50.9599C111.36 53.6099 111.66 57.3699 111.94 61.0099C112.36 66.4099 112.76 71.5099 117.5 71.9399C117.98 71.9799 118.46 72.0099 118.93 72.0099C125.79 72.0099 131.76 67.52 133.42 60.89C134.11 58.12 131.93 53.3199 127.72 48.3799ZM132.56 60.67C130.89 67.32 124.59 71.6899 117.57 71.0499C113.57 70.6899 113.22 66.1699 112.81 60.9399C112.52 57.1999 112.22 53.3299 110.51 50.4999C107.96 46.2699 104.81 39.4499 105.79 37.5299C105.93 37.2699 106.14 37.1299 106.47 37.1099C113.23 36.5399 121.67 42.64 127.04 48.95C131.01 53.61 133.18 58.21 132.56 60.67Z" fill="#FFED9F"/>
<path d="M125.78 58.4699C125.35 53.8899 120.25 47.1399 116.25 47.1399C115.87 47.1399 115.65 47.3299 115.53 47.4899C115.05 48.1299 115.41 49.3999 116.14 51.7699C116.62 53.3199 117.16 55.0799 117.28 56.4999C117.33 57.0699 117.33 57.6399 117.34 58.1899C117.36 59.7699 117.39 61.2599 118.43 62.1099C118.98 62.5599 119.76 62.7799 120.81 62.7799C121.47 62.7799 122.24 62.6899 123.12 62.5299C125.05 62.1399 125.99 60.7099 125.78 58.4699ZM122.97 61.6399C120.96 62.0199 119.66 61.9499 119 61.4099C118.28 60.8199 118.26 59.5899 118.24 58.1599C118.23 57.5999 118.22 57.0199 118.17 56.4199C118.05 54.8999 117.49 53.0899 116.99 51.4899C116.61 50.2499 116.03 48.3899 116.23 48.0199H116.24C119.72 48.0199 124.51 54.4899 124.89 58.5499C125.06 60.3199 124.41 61.3599 122.97 61.6399Z" fill="#FFED9F"/>
</g>
<path opacity="0.65" d="M154.47 79.6401C153.76 83.3801 152.61 87.1201 151.01 90.8001C136.46 124.29 92.4104 132.88 66.6004 107.07C50.8304 91.4501 47.9304 70.3501 54.2904 52.6001C59.5704 64.8701 68.0804 83.2701 98.2004 92.5501C119.61 99.1401 144.05 93.4301 154.47 79.6401Z" fill="url(#paint3_linear_291_728)"/>
<path opacity="0.65" d="M155.36 70.26C155.35 73.36 155.06 76.5 154.46 79.64C153.75 83.38 152.6 87.12 151 90.8C136.45 124.29 92.4003 132.88 66.5903 107.07C63.5203 104.03 60.9403 100.78 58.8203 97.39C131.68 130.53 154.71 68 154.71 68L155.36 70.26Z" fill="url(#paint4_linear_291_728)"/>
<path d="M161.75 70.0399C161.45 70.8799 160.98 71.6399 160.38 72.2699C170.47 78.8399 175.9 85.1499 174.49 89.8699C172.89 95.2299 162.8 97.4899 147.94 96.7499C134.38 96.0799 116.86 92.9299 98.2102 87.3799C79.4302 81.7899 62.9302 74.7899 51.2002 67.8799C38.5202 60.4199 31.4102 53.0799 32.9902 47.7499C34.6102 42.3199 44.9602 40.0699 60.1502 40.8999C60.7202 40.0399 61.3202 39.1999 61.9502 38.3699C42.3502 36.9899 28.5602 39.9199 26.4002 47.1799C24.2402 54.4299 34.1402 64.3899 51.2402 73.9399C63.3202 80.6899 79.0102 87.2199 96.5702 92.4499C114.11 97.6699 130.78 100.77 144.56 101.73C164.15 103.1 177.92 100.18 180.08 92.9199C181.96 86.6599 174.8 78.3499 161.75 70.0399Z" fill="url(#paint5_linear_291_728)"/>
<path d="M87.5501 98.17C94.5751 98.17 100.27 92.475 100.27 85.45C100.27 78.4249 94.5751 72.73 87.5501 72.73C80.525 72.73 74.8301 78.4249 74.8301 85.45C74.8301 92.475 80.525 98.17 87.5501 98.17Z" fill="url(#paint6_radial_291_728)"/>
<defs>
<radialGradient id="paint0_radial_291_728" cx="0" cy="0" r="1" gradientUnits="userSpaceOnUse" gradientTransform="translate(103.944 69.5646) scale(61.224 61.224)">
<stop stop-color="#FFD83D"/>
<stop offset="1" stop-color="#FCC724" stop-opacity="0"/>
</radialGradient>
<radialGradient id="paint1_radial_291_728" cx="0" cy="0" r="1" gradientUnits="userSpaceOnUse" gradientTransform="translate(157.072 66.8066) scale(6.21301)">
<stop stop-color="#FFB53D"/>
<stop offset="1" stop-color="#FC4A36"/>
</radialGradient>
<radialGradient id="paint2_radial_291_728" cx="0" cy="0" r="1" gradientUnits="userSpaceOnUse" gradientTransform="translate(104.138 50.0995) scale(52.1006 52.1006)">
<stop stop-color="#FFD83D"/>
<stop offset="1" stop-color="#FC7B24"/>
</radialGradient>
<linearGradient id="paint3_linear_291_728" x1="95.0149" y1="122.967" x2="103.003" y2="71.7843" gradientUnits="userSpaceOnUse">
<stop stop-color="#E04127"/>
<stop offset="1" stop-color="#E04127" stop-opacity="0.1"/>
</linearGradient>
<linearGradient id="paint4_linear_291_728" x1="117.403" y1="125.779" x2="104.534" y2="73.4148" gradientUnits="userSpaceOnUse">
<stop stop-color="#C22C27"/>
<stop offset="1" stop-color="#D33127" stop-opacity="0.2"/>
</linearGradient>
<linearGradient id="paint5_linear_291_728" x1="98.3362" y1="95.6961" x2="109.2" y2="39.0479" gradientUnits="userSpaceOnUse">
<stop stop-color="#DB3B18"/>
<stop offset="0.6812" stop-color="#F4742C"/>
<stop offset="0.9928" stop-color="#F4742C" stop-opacity="0.1"/>
</linearGradient>
<radialGradient id="paint6_radial_291_728" cx="0" cy="0" r="1" gradientUnits="userSpaceOnUse" gradientTransform="translate(89.9125 80.4159) scale(12.7218)">
<stop stop-color="#FFD83D"/>
<stop offset="1" stop-color="#FC7B24"/>
</radialGradient>
</defs>
</svg>
